<?xml version="1.0" encoding="UTF-8" ?>
<svg version="1.1" width="11" height="12" xmlns="http://www.w3.org/2000/svg" shape-rendering="crispEdges">
<rect x="5" y="1" width="1" height="3" fill="#f39a4a" />
<rect x="4" y="2" width="1" height="3" fill="#f39a4a" />
<rect x="6" y="2" width="1" height="3" fill="#f39a4a" />
<rect x="3" y="3" width="1" height="3" fill="#f39a4a" />
<rect x="7" y="3" width="1" height="3" fill="#f39a4a" />
<rect x="2" y="4" width="1" height="3" fill="#f39a4a" />
<rect x="8" y="4" width="1" height="3" fill="#f39a4a" />
<rect x="1" y="5" width="1" height="1" fill="#f39a4a" />
<rect x="9" y="5" width="1" height="1" fill="#f39a4a" />
<rect x="3" y="7" width="1" height="1" fill="#f39a4a" />
<rect x="7" y="7" width="1" height="1" fill="#f39a4a" />
<rect x="4" y="8" width="1" height="1" fill="#f39a4a" />
<rect x="6" y="8" width="1" height="1" fill="#f39a4a" />
<rect x="2" y="9" width="1" height="3" fill="#f39a4a" />
<rect x="5" y="9" width="1" height="1" fill="#f39a4a" />
<rect x="8" y="9" width="1" height="3" fill="#f39a4a" />
<rect x="1" y="10" width="1" height="2" fill="#f39a4a" />
<rect x="3" y="10" width="1" height="2" fill="#f39a4a" />
<rect x="7" y="10" width="1" height="2" fill="#f39a4a" />
<rect x="9" y="10" width="1" height="2" fill="#f39a4a" />
<rect x="0" y="11" width="1" height="1" fill="#f39a4a" />
<rect x="4" y="11" width="1" height="1" fill="#f39a4a" />
<rect x="6" y="11" width="1" height="1" fill="#f39a4a" />
<rect x="10" y="11" width="1" height="1" fill="#f39a4a" />
</svg>