<svg width="172" height="166" viewBox="0 0 172 166" fill="none" xmlns="http://www.w3.org/2000/svg">
<path d="M32.8574 0C32.8574 0 28.024 7.66722 26.8574 13.5C26.0245 17.6647 25.8784 23.7391 25.8574 26.5156V60.8574L34 69L25.8574 77.1426V105H49.8574V64H50.1309C51.0417 62.3552 54.0716 57.0456 56.8574 54C60.1487 50.402 66.5281 46.2147 66.8447 46.0078V46H120V105H119.857C119.857 105 115.548 111.624 111.857 115C108.812 117.786 103.502 120.816 101.857 121.727V122H66.8574V140H94.7148L102.857 131.857L111 140H145.342C148.118 139.979 154.193 139.833 158.357 139C164.19 137.833 171.857 133 171.857 133C171.857 133 168.906 144.339 162.857 149.5C157.027 154.475 151.7 156.85 144.555 156.993L143.857 157H111.715L102.857 165.857L94 157H49.8574V122H8.85742V77.8574L0 69L8.85742 60.1426V28C8.85742 20.5002 11.2217 15.019 16.3574 9C21.5182 2.95176 32.8574 0 32.8574 0ZM66.8574 105H103.5V64H66.8574V105ZM86.7393 72C89.8955 74.6516 95.8361 81.2807 97.1357 82.6064C98.1749 83.6666 98.0644 84.3104 97.8789 84.5C96.8392 86.1667 89.1527 93.5277 85.4395 97C80.8352 93.6668 76.4656 88.1621 74.8564 85.8262H73C75.9706 80.6747 83.3974 74.4621 86.7393 72Z" fill="white"/>
</svg>
