<?xml version="1.0" encoding="UTF-8" ?>
<svg version="1.1" width="48" height="48" xmlns="http://www.w3.org/2000/svg" shape-rendering="crispEdges">
<rect x="0" y="0" width="6" height="2" fill="#061d31" />
<rect x="8" y="0" width="6" height="2" fill="#061d31" />
<rect x="34" y="0" width="6" height="2" fill="#061d31" />
<rect x="42" y="0" width="6" height="2" fill="#061d31" />
<rect x="0" y="2" width="2" height="4" fill="#061d31" />
<rect x="4" y="2" width="2" height="46" fill="#061d31" />
<rect x="8" y="2" width="2" height="8" fill="#061d31" />
<rect x="12" y="2" width="2" height="4" fill="#061d31" />
<rect x="34" y="2" width="2" height="4" fill="#061d31" />
<rect x="38" y="2" width="2" height="8" fill="#061d31" />
<rect x="42" y="2" width="2" height="46" fill="#061d31" />
<rect x="46" y="2" width="2" height="4" fill="#061d31" />
<rect x="2" y="4" width="2" height="2" fill="#061d31" />
<rect x="6" y="4" width="2" height="2" fill="#061d31" />
<rect x="10" y="4" width="2" height="2" fill="#061d31" />
<rect x="14" y="4" width="20" height="2" fill="#061d31" />
<rect x="36" y="4" width="2" height="2" fill="#061d31" />
<rect x="40" y="4" width="2" height="2" fill="#061d31" />
<rect x="44" y="4" width="2" height="2" fill="#061d31" />
<rect x="0" y="8" width="4" height="2" fill="#061d31" />
<rect x="6" y="8" width="2" height="2" fill="#061d31" />
<rect x="40" y="8" width="2" height="2" fill="#061d31" />
<rect x="44" y="8" width="4" height="2" fill="#061d31" />
<rect x="0" y="10" width="2" height="4" fill="#061d31" />
<rect x="46" y="10" width="2" height="4" fill="#061d31" />
<rect x="2" y="12" width="2" height="2" fill="#061d31" />
<rect x="44" y="12" width="2" height="2" fill="#061d31" />
<rect x="0" y="34" width="4" height="2" fill="#061d31" />
<rect x="44" y="34" width="4" height="2" fill="#061d31" />
<rect x="0" y="36" width="2" height="4" fill="#061d31" />
<rect x="46" y="36" width="2" height="4" fill="#061d31" />
<rect x="2" y="38" width="2" height="2" fill="#061d31" />
<rect x="6" y="38" width="4" height="2" fill="#061d31" />
<rect x="38" y="38" width="4" height="2" fill="#061d31" />
<rect x="44" y="38" width="2" height="2" fill="#061d31" />
<rect x="8" y="40" width="2" height="8" fill="#061d31" />
<rect x="38" y="40" width="2" height="8" fill="#061d31" />
<rect x="0" y="42" width="4" height="2" fill="#061d31" />
<rect x="6" y="42" width="2" height="2" fill="#061d31" />
<rect x="10" y="42" width="28" height="2" fill="#061d31" />
<rect x="40" y="42" width="2" height="2" fill="#061d31" />
<rect x="44" y="42" width="4" height="2" fill="#061d31" />
<rect x="0" y="44" width="2" height="4" fill="#061d31" />
<rect x="12" y="44" width="2" height="4" fill="#061d31" />
<rect x="34" y="44" width="2" height="4" fill="#061d31" />
<rect x="46" y="44" width="2" height="4" fill="#061d31" />
<rect x="2" y="46" width="2" height="2" fill="#061d31" />
<rect x="10" y="46" width="2" height="2" fill="#061d31" />
<rect x="36" y="46" width="2" height="2" fill="#061d31" />
<rect x="44" y="46" width="2" height="2" fill="#061d31" />
</svg>
