<svg width="357" height="448" viewBox="0 0 357 448" fill="none" xmlns="http://www.w3.org/2000/svg">
<path d="M187.41 12.3201C176.829 22.3148 166.086 31.5581 166.086 31.5581C166.086 32.7575 155.908 41.4312 147.846 48.6274C139.28 55.8236 109.228 80.007 107.717 85.2043C102.853 93.739 107.109 96.8645 102.853 99.8351C79.9613 115.813 79.6231 108.415 76.5523 117.946C70.0019 131.139 51.6647 154.207 16.8974 187.39C2.28503 201.382 0.269531 206.18 0.269531 226.969C0.269531 247.358 1.78115 251.756 12.8664 258.552C25.4632 266.548 65.4149 311.537 65.4149 317.533C65.4149 319.532 61.8878 323.131 57.8568 325.929C51.9665 329.884 49.5395 333.515 50.3467 336.314C51.3349 339.741 58.6345 337.435 68.8955 337.435C83.5078 337.435 79.1741 336.075 97.8174 353.666C109.407 365.26 122.82 378.099 126.851 381.697C130.882 385.295 143.001 396.897 158.117 411.69C171.517 424.304 201.029 447.85 201.029 447.85C201.029 447.85 217.352 432.515 238.995 406.644C252.096 391.052 283.269 354.305 308.966 328.718C334.664 303.132 356.999 264.503 356.999 260.505C356.999 256.107 348.507 248.992 333.895 236.999C319.283 225.005 297.041 210.098 279.405 192.508C245.142 158.525 240.103 154.527 230.529 154.527C227.506 154.527 213.901 166.521 200.801 181.313C187.7 196.505 172.08 214.096 165.529 220.493L153.94 232.487L190.475 260.505L227.492 290.035L240.774 281.768L258.361 266.351L277.35 281.768C287.427 291.363 292.55 293.733 292.55 296.131C292.55 300.529 253.19 344.249 227.492 366.237L214.873 360.311L173.555 325.929C135.261 294.346 76.0972 219.585 76.0972 219.585C76.0972 219.585 78.3296 217.074 103.019 196.285C117.632 183.492 148.451 157.672 148.451 147.385C151.976 139.732 223.166 71.1832 228.708 71.1832C233.243 71.1832 233.428 68.6229 262.149 85.814C281.296 97.4079 280.023 97.8186 291.334 99.8351C294.871 100.466 300.454 99.8351 300.454 99.8351C300.454 99.8351 265.764 68.4636 265.764 60.4677C265.764 56.4698 258.895 57.659 248.845 45.3253C238.768 37.3295 219.912 16.8904 210.338 7.29538L200.135 0.467743L187.41 12.3201Z" fill="white"/>
</svg>
