<svg width="44" height="531" viewBox="0 0 44 531" fill="none" xmlns="http://www.w3.org/2000/svg">
<path fill-rule="evenodd" clip-rule="evenodd" d="M12 277V493C12 493 24.6421 502.668 31 510.5C36.9097 517.78 43.5 531 43.5 531V526C43.5 526 39.5083 514.566 35.5 508C31.5911 501.597 23.5 493 23.5 493V278.27L36.7696 265L23.5 251.73V37.5C23.5 37.5 31.9357 28.3084 36 21.5C39.628 15.4224 43.5 5 43.5 5V0C43.5 0 36.3148 12.4322 30.5 19.5C24.0958 27.2843 12 37.5 12 37.5V253L0 265L12 277Z" fill="url(#paint0_linear_1_692)"/>
<defs>
<linearGradient id="paint0_linear_1_692" x1="19.5509" y1="-7.00924e-09" x2="19.5509" y2="493" gradientUnits="userSpaceOnUse">
<stop stop-color="#C2A559"/>
<stop offset="1" stop-color="#E19133"/>
</linearGradient>
</defs>
</svg>
