<?xml version="1.0" encoding="UTF-8"?>
<svg id="Layer_2" data-name="Layer 2" xmlns="http://www.w3.org/2000/svg" viewBox="0 0 92.18 80.15">
  <defs>
    <style>
      .cls-1 {
        fill: #664918;
      }

      .cls-2 {
        fill: #a26e22;
      }

      .cls-3 {
        fill: #2d1f0d;
      }

      .cls-4 {
        fill: #654817;
      }

      .cls-5 {
        fill: #865b1b;
      }
    </style>
  </defs>
  <g id="Layer_7" data-name="Layer 7">
    <g>
      <path class="cls-2" d="M91.93,15.43c-.29-.15-.35-.64-.74-.63.59,1.58.14,3.44-1.01,4.67-.17-.27.05-.62.04-.89-.06-1.58-1.77-3.19-2.45-4.67-.91-1.97-.55-3.78-1.15-5.8.13-.15.96.86,1.15.72.04-.02-.03-.25.17-.19.56.17,2.11,2.16,2.48,2.73.84,1.25,1.4,2.54,1.51,4.06ZM91.13,14.69c.07-.03.07-.07,0-.11v.11ZM87.95,9.27c.07-.03.07-.07,0-.1v.1ZM87.84,9.06c.07-.03.07-.07,0-.1v.1Z"/>
      <path d="M91.13,14.58c.07.04.07.08,0,.11v-.11Z"/>
      <path d="M87.95,9.17c.07.03.07.07,0,.1v-.1Z"/>
      <path d="M87.84,8.96c.07.03.07.07,0,.1v-.1Z"/>
      <path class="cls-5" d="M83.84,10.94c.55,3.27.93,6.53.41,9.83-.56,3.54-2.11,6.79-3.9,9.85-.35.03-.57.57-.95.37.38-.62.73-1.26,1.04-1.93.75-1.6,1.12-2.65,1.29-4.44.06-.61.06-1.25.11-1.86-.22.08-.2.46-.38.63-.2.2-.74.34-.94.65-.3.45-.7,1.92-1.03,2.58-.04.07-.35.8-.52.6.29-1.64.94-3.35.74-5.04-.07-.69-.63-1.79-1.11-2.29-.25.74.1,1.46.16,2.13-.34-.06-.18.17-.22.36-.35,1.81-.96,2.85-2.17,4.21-2.49,2.78-5.87,4.46-9.51,5.2l.7.2,1.21.11c-2.4.87-5.02.6-7.54.64-.84-.3-1.68-.63-2.55-.85-.15-.12-1.34-.73-1.59-.85-.04-.33.09-.19.29-.13.67.18,2.27.88,2.84.88h1.81s.31-.11.26-.21l-2.65-.7-.53-.37c.92-.23,1.96-.18,2.87-.36.27-.06.76-.14.74-.49-1.3.04-2.74-.94-3.93-1.01-1.83-.1-4.76.31-6.32-.9-.31-.23-.36-.59-.39-.62-.04-.03-.67-.07-.94-.17-.55-.22-1.2-.75-1.77-1-.34-.02-.13.03-.02.12.35.29.75.52,1.04.88,0,.21-1.12.06-1.33.68-.24.7.27.8.59,1.28-3.2-.45-5.57-2.69-8.79-3.16-.41-.06-2.69-.44-2.1.51.26.41,2.45.68,3.01.81.15.03.53.07.55.25-1.18-.09-2.31-.51-3.5-.43-.04-.01-.08.01-.11,0h-.02s-.08-.08-.19-.1c-.99-.21-2.28-.32-3.3-.43-.37-1.05.55-1.4,1.12-1.91.27-.25.57-.65.85-.85s.76-.22.8-.53c.44-.01.84-.1,1.27-.11.04.17.39.16.43,0,.56-.01,1.12.01,1.7,0-.06.35.17.18.37.21.89.14,1.81.35,2.68.61.79.24,2.13.95,2.79,1.05,1.17.2,2.06-.15,3.46.46,1.46.65,2.63,1.14,4.27,1.47.33.07.68.12,1.02.17,1.02.14,2.07.25,3.04.54.8.24,1.25.78,2.18.7,1.6-.14,5.85-3.74,6.79-5.11.13-.19.36-.47.38-.69.03-.35-.29-.48-.11-.79-.36-.06-.48.29-.77.45-.7.36-1.21.14-1.67-.45,2.17-.88,4.65-3.03,6.21-4.77,1.38-1.54,2.39-3.53,2.82-5.53,1.57,2.17,1.82,4.98,1.8,7.6l.21.15,1.28-3.87c.04-1.76-.04-3.56-.53-5.26.28.09.27-.35.29-.51.14-1.42-.39-2.6-.71-3.95.18-.04.26.1.37.21,1.19,1.24,2.24,2.61,3.18,4.05.27.23.53-.13.69-.33.57,1.23.68,2.77,1.23,4.04.61-.75.96-1.68.9-2.66l.3.18ZM74.83,19.84c.18-1.57-.13-3.44,0-5.04l-.55,1.3c-.84,1.1-1.54,2.59-2.58,3.48-.14.11-.44.19-.47.23-.05.09,0,.35-.06.51-.78,1.95-1.7,3.86-2.82,5.63.25.21,3.08-1.93,3.45-2.24.31-.25.96-1.23,1.17-.63.72-.93,1.72-2.03,1.86-3.24Z"/>
      <path class="cls-1" d="M81.84,22.76c-.05.61-.05,1.25-.11,1.86-.17,1.79-.54,2.84-1.29,4.44-.31.67-.66,1.31-1.04,1.93.38.2.6-.34.95-.37-2.4,4.1-5.44,6.91-9.59,9.26-7.9,4.46-15.2,3.71-23.55,1.04l3.34.53c.43,0,3.13.23,3.24.11.04-.04-.03-.39,0-.43.06-.05,1.29.02,1.55.01,3.53-.23,9.5-2.59,12.21-4.89.08-.08,1.03-.94.55-.84-1.31.26-2.88.91-4.17,1.04-3.94.39-8.27-.92-11.84-2.43,1.15.09,2.39.03,3.48-.29.84-.25,1.7-.51,2.53-.77.62-.2,1.39-.38.58-1.07.87.22,1.71.55,2.55.85,2.57.92,4.07,1.08,6.85.75,5.89-.71,11.27-5.16,10.68-11.47-.06-.67-.41-1.39-.16-2.13.48.5,1.04,1.6,1.11,2.29.2,1.69-.45,3.4-.74,5.04.17.2.48-.53.52-.6.33-.66.73-2.13,1.03-2.58.2-.31.74-.45.94-.65.18-.17.16-.55.38-.63Z"/>
      <path class="cls-2" d="M81.41,9.38c-.16.2-.42.56-.69.33-.94-1.44-1.99-2.81-3.18-4.05-.11-.11-.19-.25-.37-.21.32,1.35.85,2.53.71,3.95-.02.16,0,.6-.29.51-.7-2.41-1.29-4.82-2.47-7.14-.12-.24-.41-.33-.4-.61.12-.12,1.32.86,1.49,1.01,1.61,1.4,4.33,4.29,5.2,6.21ZM77.11,5.35c.07-.04.07-.08,0-.11v.11Z"/>
      <path class="cls-2" d="M78.76,22.02c.59,6.31-4.79,10.76-10.68,11.47-2.78.33-4.28.17-6.85-.75,2.52-.04,5.14.23,7.54-.64l-1.21-.11-.7-.2c3.64-.74,7.02-2.42,9.51-5.2,1.21-1.36,1.82-2.4,2.17-4.21.04-.19-.12-.42.22-.36Z"/>
      <path class="cls-2" d="M77.06,37.79c.12-.13.22-.3.42-.27-.22,1.96-1.01,3.6-2.34,5.04-.12.13-.21.31-.42.27.31-.67.26-1.81.51-2.41.07-.18,1.64-2.41,1.83-2.63Z"/>
      <path class="cls-5" d="M77.11,5.24c.07.03.07.07,0,.11v-.11Z"/>
      <path class="cls-1" d="M74.83,14.8c-.13,1.6.18,3.47,0,5.04-.14,1.21-1.14,2.31-1.86,3.24-.21-.6-.86.38-1.17.63-.37.31-3.2,2.45-3.45,2.24,1.12-1.77,2.04-3.68,2.82-5.63.06-.16.01-.42.06-.51.03-.04.33-.12.47-.23,1.04-.89,1.74-2.38,2.58-3.48l.55-1.3Z"/>
      <path class="cls-4" d="M72.51,6.12c.37.68.64,2.92.41,3.64-.22.7-1.16,1.65-1.95,1.41-.15-.05-.3-.3-.34-.3-.06,0-.57.63-.76.73-.55.28-2.03.07-2.32-.52,0-.02-.02-.04-.02-.07-.04-.13-.06-.32-.03-.35.05-.06,1.2-.25,1.56-.41,1.17-.53,2.47-2.33,2.58-3.59.02-.25-.14-.67-.09-.76.01-.02.23-.15.37-.21.04-.02.08-.03.09-.03.2,0,.41.3.5.46Z"/>
      <path class="cls-4" d="M72.44.25c.2.47.23,1.19.06,1.82-.11.45-.33.86-.65,1.09-.14.1-.77.38-.9.38h-1.75c1.17-.98,2.75-1.73,3.24-3.29Z"/>
      <path class="cls-2" d="M71.75,43.58c.04.2-.12.25-.22.37-1.26,1.52-4.91,3.09-6.82,3.8-2.84,1.04-6.89,1.77-9.91,1.56-1.75-.12-3.24-1.21-4.83-1.86-.21-.17-.44-.64-.49-.9-.07-.39.23-.74-.11-.94l-12.57-3.1c.85-.09,1.73-.34,2.6-.32,8.64.22,17,5.52,25.98,3.78,2.25-.44,4.26-1.55,6.37-2.39Z"/>
      <path class="cls-1" d="M68.24,21.59c-.18.31.14.44.11.79-.02.22-.25.5-.38.69-.94,1.37-5.19,4.97-6.79,5.11-.93.08-1.38-.46-2.18-.7-.97-.29-2.02-.4-3.04-.54l.05-.35c.75,0,1.37-1.03,2.14-1.07-.22.68.09,1.53.91,1.5.25-.01.12-.2.25-.38.37-.5,1.28-.73,1.81-1.07.48-.31,1.01-.98,1.39-1.26.67-.5,2.08-.57,2.76-1.18-.84-.55-1.68.58-2.49.49-.12-.02-.03-.3-.16-.39-.03-.02-.57-.14-.65-.15.2-.24.64-.39.93-.51.92-.36,2.03-.62,2.9-.98.46.59.97.81,1.67.45.29-.16.41-.51.77-.45Z"/>
      <path class="cls-2" d="M68.35,5.13c.01.26-.09.48-.22.69-.27.46-1.51,1.71-1.96,2.08-2.25,1.85-4.89,1.11-7.51,1.62-.8.15-1.66.51-2.42.82-.13-.14.86-1.15,1-1.28,1.24-1.16,2.67-1.94,4.42-1.8-.33-.5-.96-.37-1.44-.43-.15-.01-.31-.06-.16-.21.04-.04.96-.2,1.11-.22,1.91-.15,3.92.58,5.76-.4l1.42-.87Z"/>
      <path class="cls-3" d="M68.1,35.41c.48-.1-.47.76-.55.84-2.71,2.3-8.68,4.66-12.21,4.89-.26.01-1.49-.06-1.55-.01-.03.04.04.39,0,.43-.11.12-2.81-.11-3.24-.11l-3.34-.53s-.08-.1-.11-.11c-.14-.04-.33-.14-.53-.21-.03-.01-.07.01-.11,0-.02-.01-.03-.01-.05-.02-1.38-.82-2.94-1.19-4.49-1.54-2-.44-3.79-.75-5.81-.77-.56-.01-1.25-.35-1.86-.22.15-1.01,1.31-1.11,1.99-1.46,2.16-1.1,2.74-1.65,5.39-1.93.96-.11,1.79.05,2.66-.01.12,0,.29.08.26-.1-1.44-.48-2.69-1.47-4.03-2.18-3.54-1.88-7.61-3.24-11.58-3.77l1.42-.97.28-.3c.84-.03,2.16.13,2.91-.01.23-.04.44-.28.7-.36,1.03-.36,4.83.3,6.05.58,2.42.55,4.99,1.89,7.38,2.66.34.11,2.3.68,2.49.51.2-.46-.07-.94.01-1.42.03-.16-.06-.17.16-.16.33.02,1.57.65,2.07.8,1.5.45,3.3.49,4.68,1.11.25.12,1.44.73,1.59.85.81.69.04.87-.58,1.07-.83.26-1.69.52-2.53.77-1.09.32-2.33.38-3.48.29-.02,0-.18-.18-.31-.11v.11c.09.02.25-.03.31,0,3.57,1.51,7.9,2.82,11.84,2.43,1.29-.13,2.86-.78,4.17-1.04Z"/>
      <path class="cls-2" d="M65.73,11.48c.25,0,.3.37.28.6-.13,1.44-1.71,2.79-2.76,3.57-.63-.51-1.4.26-2.2.31-.27.01-.42-.1-.46-.1l3.35-2.23c.33-.38.81-.73,1.11-1.12.17-.21.53-.99.59-1.01.03-.01.07-.02.09-.02Z"/>
      <path class="cls-2" d="M62.78,23.62c.81.09,1.65-1.04,2.49-.49-.68.61-2.09.68-2.76,1.18-.38.28-.91.95-1.39,1.26-.53.34-1.44.57-1.81,1.07-.13.18,0,.37-.25.38-.82.03-1.13-.82-.91-1.5-.77.04-1.39,1.07-2.14,1.07h-.04c-.24-.01-.85-.3-1.01-.48-.22-.25-.29-.87-.33-.9-.05-.04-1.16-.13-1.32-.12-.4.02-.71.25-1.11.22-.13-.14.26-1.18.38-1.37.25-.41.77-.45.9-.86.43.02,1.09-.3,1.64-.32.4-.02,2.1.29,2.18.21.03-.03,0-.73.48-.74.29,0,1.51.74,2.04.82.69.11,1.48-.05,2.15.03.08.01.62.13.65.15.13.09.04.37.16.39Z"/>
      <path class="cls-5" d="M61.05,15.96c.8-.05,1.57-.82,2.2-.31-3.98,2.94-5.95,3.59-10.84,4.35.1-.35-.64-.23-.79-.21-1.34.14-2.62.5-3.99.53h-.63c.05-.34-.18-.18-.38-.21-.61-.08-1.23-.14-1.84-.29l-.97-.35c.81-.06,1.67-.07,2.47-.24.11-.03,1.34-.35,1.03-.61l-9.02-2.44.84-.22,1.28-.1.05.1.06-.1c1.23-.09,2.4-.03,3.61-.11-.06.34.16.18.36.22,2.06.35,3.94.88,6.07,1.06.5.04,1.03-.03,1.53,0-.18-.5-2.24-1.35-2.33-1.54-.1-.22.17-.16.26-.16.59-.04,1.17.02,1.76.1,0-.17-.14-.35-.11-.53.11-.73,1.84.07,2.25.25,2,.87,2.73,1.38,5.12,1.13.5-.06,1.17-.43,1.55-.42.04,0,.19.11.46.1Z"/>
      <path class="cls-1" d="M62.72,29.66c.02.35-.47.43-.74.49-.91.18-1.95.13-2.87.36l.53.37,2.65.7c.05.1-.25.21-.26.21h-1.81c-.57,0-2.17-.7-2.84-.88-.2-.06-.33-.2-.29.13-1.38-.62-3.18-.66-4.68-1.11-.5-.15-1.74-.78-2.07-.8-.22-.01-.13,0-.16.16-.08.48.19.96-.01,1.42-.19.17-2.15-.4-2.49-.51-2.39-.77-4.96-2.11-7.38-2.66-.41-.34-.97-.5-1.48-.64,1.19-.08,2.32.34,3.5.43-.02-.18-.4-.22-.55-.25-.56-.13-2.75-.4-3.01-.81-.59-.95,1.69-.57,2.1-.51,3.22.47,5.59,2.71,8.79,3.16-.32-.48-.83-.58-.59-1.28.21-.62,1.33-.47,1.33-.68-.29-.36-.69-.59-1.04-.88-.11-.09-.32-.14.02-.12.57.25,1.22.78,1.77,1,.27.1.9.14.94.17.03.03.08.39.39.62,1.56,1.21,4.49.8,6.32.9,1.19.07,2.63,1.05,3.93,1.01ZM42.75,27.43v-.1c-.45-.05-.45.16,0,.1Z"/>
      <path class="cls-1" d="M56.01,26.59l-.05.35c-.34-.05-.69-.1-1.02-.17-1.64-.33-2.81-.82-4.27-1.47-1.4-.61-2.29-.26-3.46-.46-.66-.1-2-.81-2.79-1.05-.87-.26-1.79-.47-2.68-.61-.2-.03-.43.14-.37-.21,2.46-.01,4.9.17,7.35.21.15.01.3.01.45.01,1.49.02,2.83-.19,4.31-.11-.13.41-.65.45-.9.86-.12.19-.51,1.23-.38,1.37.4.03.71-.2,1.11-.22.16-.01,1.27.08,1.32.12.04.03.11.65.33.9.16.18.77.47,1.01.48h.04Z"/>
      <path class="cls-4" d="M51.62,19.79c.15-.02.89-.14.79.21-.92.14-1.85.37-2.81.42-.25.02-.52.03-.81.03-.41,0-.82-.03-1.16-.13,1.37-.03,2.65-.39,3.99-.53Z"/>
      <path class="cls-1" d="M52.09,17.03c-.5-.03-1.03.04-1.53,0-2.13-.18-4.01-.71-6.07-1.06-.2-.04-.42.12-.36-.22.45-.03,2.49-.26,2.79-.42.16-.09.19-.52.46-.73.61-.48,2.61-.37,3.36-.2.46.1.54.39.93.5-.03.18.11.36.11.53-.59-.08-1.17-.14-1.76-.1-.09,0-.36-.06-.26.16.09.19,2.15,1.04,2.33,1.54Z"/>
      <path class="cls-4" d="M52.09,34.02c-.06-.03-.22.02-.31,0v-.11c.13-.07.29.11.31.11Z"/>
      <path class="cls-4" d="M49.09,48.12c.25.13,1.19.54,1.2.82,0,.13-2.35.52-2.62.56-1.51.25-3.16.31-4.63.58l-.2-.49c.1,0,.17-.03.21-.08.06-.08.02-.32-.04-.41-.15-.26-.85-.26-1.01-.53.18.01.87,0,.95-.12.49-.73-1.71-.92-2.06-.94-.8-.06-1.86-.05-2.66-.01-.37.02-.87.24-1.16.21-.22-.01-.39-.21-.65-.21-.46-.01-.43.28-.2.56l-.53.37c-.58,0-1.65.15-1.81.14-.38,0-.81-.22-1.15-.19-.99.09-2.52.67-3.56.9-.33.08-.67,0-1.01.05-1.84.36-3.71,1.42-5.49,2-.01-.19-.01-.36.05-.54.14-.42,1.16-1.34,1.55-1.63.85-.63,2.32-.88,3.36-1.31.26-.11.24-.14-.02-.13-2.31.39-4.68.34-6.84,1.34-.26.11-.45.37-.7.47-1.26.49-2.84.47-4.2,1.27.41-.42.79-.88,1.22-1.28.14-.13,1.02-.91,1.09-.93,2.1-.64,4.33-1.43,6.48-1.9,2.17-.48,3.95-.43,6.14-.46.2,0,.5-.13.62-.1.44.11-.21.82-.2,1.06,2.44-.29,5.31-1.49,7.76-1.18.21.02.1.2.31.23.51.06,1.16-.06,1.7-.01,3.03.27,5.35.56,8.1,1.89Z"/>
      <path class="cls-4" d="M44.77,10.92l2.76,1.54c-.7.31-1.49-.08-2.16.02-.84.14-1.89,1.24-2.68,1.16-.08-.01-.64-.6-.87-.74-1.14-.67-2.49-.72-3.75-1.02.84-.64,2.03-.81,3.05-.99.39-.08,1.02-.06,1.34-.15.17-.05.29-.3.46-.39.51-.29,1.35.38,1.85.57Z"/>
      <path class="cls-4" d="M47.31,18.62c.31.26-.92.58-1.03.61-.8.17-1.66.18-2.47.24l.97.35c.61.15,1.23.21,1.84.29.2.03.43-.13.38.21-3.94.04-8.75-1.76-12.23-3.55-.19-.1-.73-.41-.84-.54-.14-.15-.1-.15.07-.25l5.13-.02-.84.22,9.02,2.44Z"/>
      <path class="cls-4" d="M47.1,40.81c-.2.01-.41-.03-.53-.21.2.07.39.17.53.21Z"/>
      <path class="cls-4" d="M44.55,34.55c.03.18-.14.1-.26.1-.87.06-1.7-.1-2.66.01-2.65.28-3.23.83-5.39,1.93-.68.35-1.84.45-1.99,1.46.61-.13,1.3.21,1.86.22,2.02.02,3.81.33,5.81.77,1.55.35,3.11.72,4.49,1.54-3.64-1.17-8.07-2.22-11.79-1.04-.35.11-1.97.86-2.12.86-.54-.05-.65-1.13-.58-1.55.03-.23.21-.35.2-.58-1.55.07-3.07.35-4.56.74-.25-.22,1.42-1.27,1.56-1.36.61-.38,1.35-.76,2.01-1.07,2.89-1.35,6.29-2.34,9.49-2.46l-9.21-3.16c-.17-.08-.39.08-.35.24.02.09,1.28.88,1.49,1.06.1.09.76.7.63.8-2.22.06-4.34,1.04-6.26,2.07-.39.21-1.53,1.03-1.78,1.1-.13.03-.23.03-.35-.03-1.43-.9-3.02-1.48-4.67-1.86.1-.52.15-.77.32-1.28,1.03-.02,3.14,1.55,3.98,1.5.31-.02,1.69-.86,2.15-1.05,1.03-.42,2.23-.74,3.32-.98-1.75-1.62-4.18-2.1-6.37-2.87.06-.3.59-.54.85-.69,1.93-1.09,4.06-1.56,6.27-1.64l-.28.3-1.42.97c3.97.53,8.04,1.89,11.58,3.77,1.34.71,2.59,1.7,4.03,2.18Z"/>
      <path class="cls-5" d="M43.01,49.1c.06.09.1.33.04.41-.04.05-.11.08-.21.08-.42,0-1.31-.44-1.61-.52-1.5-.43-2.96-.11-4.35-.53-.24-.08-.5-.28-.66-.48-.23-.28-.26-.57.2-.56.26,0,.43.2.65.21.29.03.79-.19,1.16-.21.8-.04,1.86-.05,2.66.01.35.02,2.55.21,2.06.94-.08.12-.77.13-.95.12.16.27.86.27,1.01.53Z"/>
      <path class="cls-4" d="M42.84,49.59l.2.49c-.53.1-.73.44-1.1.5-.66.1-1.3-.12-1.9-.11-1.68.04-5.71,1.25-7.47,1.78-5.33,1.65-13.36,7.06-15.62,12.31-.64,1.48-.78,3.07-1.61,4.5-.01-.02-.14-.15-.17-.31-.08-.47-.38-1.8-.36-2.18.01-.09.71-1.5.8-1.64.18-.28.53-.48.73-.76,1.49-2.13,2.71-4.39,4.57-6.26.94-.94,3.36-2.71,3.84-3.82.06-.16,0-.39.07-.51.17-.3,5.43-2.8,6.17-3.12,1.63-.72,3.37-1.39,5.06-1.95,0-.06-.15-.08-.36-.08l.53-.37c.16.2.42.4.66.48,1.39.42,2.85.1,4.35.53.3.08,1.19.52,1.61.52Z"/>
      <path class="cls-5" d="M42.75,27.33v.1c-.45.06-.45-.15,0-.1Z"/>
      <path class="cls-4" d="M40.52,15.86l-.06.1-.05-.1h.11Z"/>
      <path class="cls-1" d="M39.67,22.97c-.04.16-.39.17-.43,0,.14,0,.28.01.43,0Z"/>
      <path class="cls-2" d="M38.82,26.9c.51.14,1.07.3,1.48.64-1.22-.28-5.02-.94-6.05-.58-.26.08-.47.32-.7.36-.75.14-2.07-.02-2.91.01-2.21.08-4.34.55-6.27,1.64-.26.15-.79.39-.85.69-.49-.04-1.95,1.39-2.29,1.81-.44.55-.58.95-.79,1.59-.17.51-.22.76-.32,1.28-.22,1.07-.37,1.55-.2,2.69.16,1.04.63,1.97,1,2.93-.49-.44-.93-1.06-1.21-1.65-.68-1.44-.71-2.65-.44-4.19.12-.65.27-1.29.53-1.91.4-.95,1.28-2.03,2.02-2.76,3.52-3.49,8.75-3.56,13.38-3.08,1.02.11,2.31.22,3.3.43l.19.09h.02s.07,0,.11.01Z"/>
      <path class="cls-1" d="M38.69,26.89l-.19-.09c.11.02.16.06.19.09Z"/>
      <path class="cls-1" d="M37.97,23.08c-.04.31-.52.33-.8.53s-.58.6-.85.85c-.57.51-1.49.86-1.12,1.91-4.63-.48-9.86-.41-13.38,3.08-.3-.27-.73-.22-1.1-.2-1.74.12-3.71.8-5.38,1.26l4.46,1.7c-.26.62-.41,1.26-.53,1.91-1.38-.05-2.74-.73-4.09-.84-1.8-.15-4.93.33-6.05,1.91l-.59,1.16c-.85-3.23,2.2-4.92,3.71-7.27,1.01-1.02,4.18-2.28,5.58-2.28h3.46c-.47-.62-1.41-.67-1.91-1.17,3.59-1,7.27-1.72,10.99-2.12,2.53-.28,5.05-.35,7.6-.43Z"/>
      <path class="cls-4" d="M37.12,52.71c.18.19-1.01,1.04-1.12,1.16-.2.21-.55.66-.69.91-.29.48-1.13,2.99-1.27,3.09-.35.25-1.08-.71-.86-1.13-.53-.04-1.23,1.35-1.33,1.38-.4.09-.92-.63-.85-1.06.07-.46.54-.6.64-.85.1-.23,0-.48.16-.7.39-.57,3.13-1.59,3.87-1.97.21-.1,1.34-.93,1.45-.83Z"/>
      <path class="cls-3" d="M35.69,48.43c.21,0,.36.02.36.08-1.69.56-3.43,1.23-5.06,1.95-.74.32-6,2.82-6.17,3.12-.07.12-.01.35-.07.51-.48,1.11-2.9,2.88-3.84,3.82-1.86,1.87-3.08,4.13-4.57,6.26-.2.28-.55.48-.73.76-.09.14-.79,1.55-.8,1.64-.02.38.28,1.71.36,2.18.03.16.16.29.17.31.1.54-.22.59-.37.96-1.2,2.9-1.32,5.66-1.44,8.76l-.21,1.11c-.27-.85-.66-1.65-.96-2.49-.59-1.68-.82-2.19-.62-4.02.18-1.63.55-3.35.89-4.96.07-.36.33-.96.35-1.24.02-.26-.22-.64-.27-.96-.12-.88.31-2.12.58-2.97.69-2.18,1.77-4.17,2.9-6.14-.32.14-.7.41-.96.64-.75.67-2.28,2.84-3.16,3-.18.04-.37.03-.56.03v-2.28c0-.31,1.14-3.93,1.34-4.3.25-.44,2.63-3.17,3.02-3.4,1.36-.8,2.94-.78,4.2-1.27.25-.1.44-.36.7-.47,2.16-1,4.53-.95,6.84-1.34.26-.01.28.02.02.13-1.04.43-2.51.68-3.36,1.31-.39.29-1.41,1.21-1.55,1.63-.06.18-.06.35-.05.54,1.78-.58,3.65-1.64,5.49-2,.34-.06.68.03,1.01-.05,1.04-.23,2.57-.81,3.56-.9.34-.03.77.19,1.15.19.16.01,1.23-.14,1.81-.14Z"/>
      <path class="cls-4" d="M33.45,11.6c.83.1-.08.59-.16,1.03-.06.37.24.95.21,1-.01.02-.39.11-.48.11-1.15-.01-1.01-2.3.43-2.14Z"/>
      <path class="cls-4" d="M33.5,18.36c.08.38-.43.15-.57.16-1.89.19-3.04,2.5-5.42,2.65-1.56.1-.81-.76.04-1.06.03-.17-.14-.12-.26-.11-.67.05-1.57.4-2.18.69-.36.17-.84.58-1.12.69-.12.05-.2-.03-.15-.16.08-.2.58-.86.74-1.06,1.23-1.47,3.05-2.24,4.94-2.39.61-.05,3.83-.15,3.98.59Z"/>
      <path class="cls-3" d="M29.89,32.53c-1.09.24-2.29.56-3.32.98-.46.19-1.84,1.03-2.15,1.05-.84.05-2.95-1.52-3.98-1.5.21-.64.35-1.04.79-1.59.34-.42,1.8-1.85,2.29-1.81,2.19.77,4.62,1.25,6.37,2.87Z"/>
      <path class="cls-3" d="M25.85,72.99c.4.63-.69,1.77-1.24,1.89-1.01.21-1.58-.48-2.37-.93-.18.24.64,1.3-.28,1.57-1.2.35-1.92-1.1-1.63-2.1-.59.61-1.51-.22-1.85-.75-.78-1.2-.24-3.43.34-4.64.07-.13.61-.96.77-.77.11.91-.01,1.88.4,2.72.52,1.06,1.25.86,2.15,1.36.36.2,1.9,1.21,1.17,1.49.76.49,1.73.66,2.54.16Z"/>
      <path class="cls-3" d="M24.9,17.98s.03.26-.06.33c-.54.4-2.18-.48-2.18-1.23,0-.37.4-.91.76-.65.15.12.08,1.12.89,1.45.17.08.57.08.59.1Z"/>
      <path class="cls-3" d="M20.72,29.25c.37-.02.8-.07,1.1.2-.74.73-1.62,1.81-2.02,2.76l-4.46-1.7c1.67-.46,3.64-1.14,5.38-1.26Z"/>
      <path class="cls-4" d="M14.28,39.54l-1.83.35c-1.6.48-1.57,2.06-2.16,3.26-.15.32-.41.6-.8.37-.28-.17-.09-.67-.31-.79-.65.93-.84,1.93-1.23,2.97-.24.65-.76,1.09-.58,1.91l-.47-.33-.59-1.05c-.26.46-.29,1.53-.48,1.91-.08.18-.35.2-.37.22-.02.04.36.44-.43.42-.26-.86-.44-1.77-.73-2.61-.07-.19-.26-.3-.31-.44-.77-2.65,3.34-6.02,5.61-6.57,1.47-.35,3.27-.2,4.68.38Z"/>
      <path class="cls-3" d="M7.74,51.96c.83,0-.09,1.07-.23,1.36-.49,1.05-.48,2.15-.03,3.21-.19.17-1.27-.72-1.39-.9-.06-.09-.42-1.17-.43-1.28,0-.46,1.65-2.38,2.08-2.39Z"/>
      <path class="cls-4" d="M4.29,66.89c.03.23-.12.43-.11.63.05.94.35,1.3-.08,2.36-.33.83-1.58.5-1.62-.39-1.28.69-1.75.27-1.98-1.04-.06-.28-.26-1.59-.25-1.77.06-.56,2.14-3.15,2.6-3.79.22-.31.4-1.17.78-.44.36.7-.34,1.07-.28,1.34.02.08.23.24.3.44.2.56.19,1.46.35,2.1.06.22.27.37.29.56Z"/>
    </g>
  </g>
</svg>