<svg width="1920" height="544" viewBox="0 0 1920 544" fill="none" xmlns="http://www.w3.org/2000/svg">
<path fill-rule="evenodd" clip-rule="evenodd" d="M236.553 18.1228C235.016 18.3425 233.258 18.8916 232.544 19.2761C231.702 19.752 231.3 20.5025 231.336 21.5277C231.336 22.8457 231.666 23.1203 234.247 23.8891C235.784 24.3834 237.871 25.3719 238.75 26.0309C239.628 26.6899 241.77 27.9531 243.418 28.7768C245.065 29.6006 247.097 30.9186 247.976 31.7424C248.799 32.5112 249.458 33.5547 249.458 33.994C249.458 34.4333 249.184 35.1473 248.799 35.5317C248.415 35.8612 247.372 36.1907 246.438 36.1907C245.559 36.1907 244.571 35.971 244.241 35.6964C243.912 35.4768 239.848 33.994 235.18 32.4563C230.512 30.9186 223.813 28.9416 220.353 28.008C216.893 27.1293 212.555 26.2506 210.743 26.0309C208.217 25.7563 207.063 25.8662 205.8 26.5252C204.922 27.0194 203.768 27.4039 203.329 27.4039C202.89 27.4039 199.155 28.3924 195.092 29.6006C191.028 30.8088 185.097 32.2915 181.912 32.8956C177.958 33.6645 173.839 33.994 168.732 33.994C164.229 33.994 160.055 33.6645 158.023 33.1702C156.211 32.7309 152.477 31.5227 149.786 30.4243C147.095 29.3809 143.581 27.6785 142.098 26.635C140.56 25.5916 137.979 24.3285 136.332 23.8342C134.684 23.3949 130.84 22.626 127.82 22.1867C124.799 21.7474 119.637 21.3629 116.287 21.3629C112.938 21.3629 106.183 21.7474 101.186 22.1867C96.1882 22.5711 89.6532 23.4498 86.6328 24.1088C81.6904 25.2072 80.7019 25.2621 76.7479 24.658C73.6726 24.1637 69.6089 24.1088 63.2936 24.3834C58.2962 24.6031 51.8711 24.8227 49.0154 24.8777C46.1598 24.8777 40.6133 24.7129 36.6594 24.4932C29.9596 24.1088 29.3006 24.1637 25.9508 25.317C22.9304 26.4154 22.2165 26.9096 21.2829 28.7219C20.6788 29.9301 20.4042 30.9186 20.7337 31.0284C21.0083 31.1383 22.7656 32.1268 24.5779 33.1702C26.8843 34.5432 30.1793 35.7514 35.2864 37.0694C39.3502 38.1128 43.5238 39.4308 44.5123 40.0349C45.4459 40.639 46.2696 41.353 46.2696 41.6825C46.2696 42.012 45.6106 42.2316 44.732 42.2316C43.9082 42.2316 41.9862 41.8472 40.5035 41.4079C38.4167 40.8038 34.902 40.639 25.4016 40.694C16.1757 40.694 11.5079 40.4743 7.00477 39.8153C4.95629 39.4794 3.05157 39.1847 1.81801 38.9938C1.03433 38.8725 0.106446 38.8216 -0.000225596 38.8003C-0.000646375 160.262 0.0400103 424.373 0.000228864 543.626H1920L1920 46.6251C1913.9 46.6251 1911.54 46.2406 1909.68 45.5267C1908.14 44.9226 1905.89 44.4284 1904.73 44.4284C1903.63 44.4284 1898.14 43.33 1892.54 41.9571C1886.94 40.639 1880.79 39.2661 1878.81 38.9366C1876.84 38.5522 1870.8 38.003 1865.36 37.7284C1859.92 37.3989 1848.66 37.0694 1840.37 37.0145L1840.34 37.0143C1825.38 36.9046 1825.21 36.9034 1815.66 34.9276L1806.05 32.9506C1773.26 32.6211 1772.72 32.676 1771.95 33.7194C1771.45 34.3784 1771.29 35.3669 1771.45 36.1907C1771.62 36.9595 1772.22 37.8931 1772.72 38.2776C1773.48 38.8267 1773.26 38.9366 1770.9 38.9366C1769.42 38.9366 1765.91 38.5522 1763.22 38.0579C1760.52 37.6186 1755.58 36.4653 1752.23 35.5866C1748.88 34.653 1742.68 32.3465 1738.34 30.3694C1731.36 27.2391 1729.61 26.6899 1721.92 25.2621C1717.14 24.3285 1710.99 23.1203 1708.3 22.5711C1705.61 21.967 1700.28 21.308 1696.49 21.1433C1692.37 20.9236 1688.09 20.9785 1685.78 21.3629C1683.7 21.6924 1679.8 22.4613 1677.11 23.0105L1672.33 24.1088C1673.1 26.6899 1673.81 27.294 1675.13 27.7334C1676.17 28.0629 1679.25 29.0514 1681.94 29.9301C1684.63 30.8088 1688.97 32.5661 1691.55 33.8842C1694.13 35.2022 1697.54 37.344 1699.18 38.5522L1702.2 40.8587C1695.89 41.1333 1694.02 40.8587 1690.18 39.5407C1687.49 38.662 1683.48 37.6186 1681.39 37.2891C1678.48 36.7948 1676.56 36.7399 1673.54 37.2341C1671.4 37.5636 1666.62 37.8382 1662.99 37.8382C1657.5 37.8382 1656.4 38.003 1656.4 38.662C1656.4 39.1013 1656.24 39.4858 1655.96 39.4858C1655.75 39.4858 1653.62 39.1235 1651.14 38.7004L1650.91 38.662C1648.33 38.2227 1643.88 37.0694 1641.03 36.1358C1638.17 35.2022 1633.72 33.5547 1631.14 32.4563L1626.47 30.4243H1605.5C1604.51 27.1842 1604.4 27.1293 1601.49 27.1293C1599.18 27.1842 1596.93 27.7883 1591.88 29.8203C1588.25 31.2481 1583.2 33.2251 1580.62 34.1038C1578.04 35.0374 1574.36 36.2456 1572.38 36.7948C1570.55 37.304 1564.8 38.6632 1559.15 39.9966L1559.15 39.9968L1557.83 40.3095C1551.79 41.6825 1543.11 43.6046 1538.61 44.5931L1530.37 46.2956C1490.39 46.5702 1475.9 46.5701 1472.44 46.5152L1466.12 46.3505C1474.63 42.2316 1480.29 39.8702 1484.24 38.3874C1488.2 36.9046 1495.39 34.7079 1500.33 33.4997C1505.22 32.2366 1509.34 31.2481 1509.5 31.2481C1509.67 31.2481 1509.78 30.7539 1509.78 30.1498C1509.78 29.4907 1509.28 28.8866 1508.57 28.667C1507.86 28.5022 1506.43 27.7334 1505.38 27.0194C1504.23 26.3055 1501.87 25.4818 1499.62 25.1522C1496.76 24.7129 1494.18 24.7129 1489.46 25.2072C1486 25.5367 1480.56 26.3055 1477.38 26.9096C1474.19 27.4588 1470.79 27.9531 1469.8 27.9531C1468.87 27.9531 1466.23 28.3375 1464.09 28.7768C1461.89 29.2711 1452.56 32.1268 1443.33 35.1473C1432.84 38.6071 1424.71 40.9136 1421.64 41.4079C1418.51 41.9021 1414.66 43.0005 1411.2 44.4284C1408.18 45.6915 1403.85 47.1742 1401.59 47.7783C1399.34 48.4374 1395.22 49.0964 1392.42 49.2611L1387.37 49.6455C1389.24 51.5677 1390.34 52.1168 1391 52.1168C1391.71 52.1168 1392.92 52.6111 1393.74 53.1603C1394.73 53.8193 1396.76 54.3685 1399.4 54.5881C1401.65 54.8078 1404.61 55.3021 1405.99 55.7414C1407.36 56.1258 1409.61 56.9496 1411.04 57.6086C1412.52 58.2127 1413.62 58.8168 1413.51 58.9815C1413.46 59.0914 1408.68 58.8717 1402.97 58.4324C1397.26 57.993 1387.21 57.1693 1380.73 56.5103C1374.25 55.9062 1367.44 55.1373 1365.62 54.8627C1364.08 54.6282 1359.52 53.7524 1354.84 52.8516C1354.04 52.6979 1353.24 52.5435 1352.44 52.3914C1347.01 51.2931 1340.14 49.8103 1337.18 49.0964L1331.85 47.7234C1245.69 47.7234 1205.1 47.4488 1186.05 47.1742L1151.45 46.5702C1137.01 44.0439 1129.6 42.7259 1125.64 42.012C1121.69 41.2981 1116.75 40.0899 1114.66 39.321C1112.57 38.5522 1108.62 37.5087 1105.87 37.0145C1103.13 36.5751 1097.96 36.026 1094.34 35.8612C1088.19 35.5317 1087.64 35.5866 1086.21 36.685C1085.17 37.5087 1084.73 38.3325 1084.73 39.4858C1084.73 40.4194 1085.11 41.5177 1085.55 41.9571C1085.99 42.3964 1088.52 43.4398 1091.15 44.2087C1093.85 44.9775 1096.48 45.8013 1097.09 46.0759C1097.74 46.3505 1090.06 46.5702 1078.96 46.5702L1059.74 46.6251C1047.39 50.7988 1040.74 53.2701 1036.95 54.8627C1033.16 56.4004 1028.11 58.4324 1025.69 59.366C1022.84 60.4094 1020.15 61.0135 1018.01 61.0684C1015.54 61.1783 1014.71 61.0135 1014.55 60.3545C1014.44 59.8053 1016.03 58.4324 1018.94 56.5652C1021.47 54.9176 1024.38 53.2701 1025.42 52.9406C1026.46 52.5562 1028.33 51.6775 1029.54 50.9636C1030.75 50.2496 1032.61 49.0414 1033.66 48.2726C1034.76 47.5037 1036.46 46.5701 1037.5 46.1308C1038.54 45.6915 1039.86 44.9775 1040.41 44.4833C1040.96 43.989 1041.4 43.3849 1041.35 43.0554C1041.35 42.7259 1040.58 42.012 1039.59 41.4628C1038.6 40.8587 1035.58 40.0349 1032.83 39.6505C1030.09 39.2661 1026.79 39.0464 1025.42 39.2112C1024.87 39.2997 1023.56 39.4953 1021.79 39.7583C1019.18 40.148 1015.57 40.6858 1011.97 41.2431L1000.98 42.8907C974.623 42.012 965.562 41.5177 963.914 41.1882C962.267 40.9136 951.503 40.2546 940.026 39.7603C926.407 39.1563 918.773 38.9915 918.059 39.3759C917.455 39.6505 914.764 40.3644 912.019 40.9136C909.273 41.4628 905.978 41.9021 904.605 41.8472C903.434 41.8472 900.626 41.6475 897.883 41.4525C897.41 41.4188 896.938 41.3853 896.477 41.353C893.402 41.0784 890.876 40.694 890.876 40.4743C890.876 40.1997 893.018 38.1128 895.599 35.8063C898.235 33.4448 900.706 30.8637 901.09 30.0399C901.64 28.9416 901.694 28.1727 901.31 27.4039C900.871 26.5252 900.212 26.3055 897.85 26.3055C896.313 26.3055 893.622 26.6899 891.974 27.1842C890.327 27.6785 885.604 29.4358 881.54 31.0284C877.257 32.7858 872.534 34.2686 870.283 34.5981C868.196 34.8727 865.725 35.4219 864.791 35.7514C864.166 35.9351 862.656 36.4878 860.902 37.1296C860.036 37.4469 859.109 37.7859 858.201 38.1128C855.455 39.1013 849.689 41.1333 845.296 42.671C837.882 45.307 836.784 45.5267 829.37 46.021C824.977 46.3505 812.401 46.6251 801.363 46.6251H781.319C775.992 43.989 775.333 43.8792 767.59 43.9341C763.032 43.989 757.376 43.8243 754.959 43.6046C752.543 43.3849 747.71 42.6161 744.251 41.9571C740.791 41.2431 735.848 40.3644 733.267 40.0349C730.686 39.7054 727.337 39.1563 725.854 38.8268C724.316 38.4972 721.351 37.5636 719.264 36.7399C717.177 35.9161 712.839 34.8178 709.654 34.2686C706.468 33.7743 701.801 32.8956 699.22 32.2915C696.584 31.7424 692.465 31.2481 689.774 31.2481C686.314 31.2481 684.777 31.4678 684.173 32.0719C683.678 32.5112 683.294 33.0604 683.294 33.335C683.239 33.5547 684.173 34.5981 685.326 35.6964C686.973 37.2341 688.072 37.7284 690.433 38.1128C692.081 38.3325 693.948 38.7169 694.552 38.9366C695.321 39.2661 694.717 39.4858 692.355 39.7603C689.939 40.0349 688.236 39.9251 686.04 39.2661C684.392 38.7718 681.537 38.1128 679.724 37.8382C677.912 37.5087 672.97 37.1243 668.741 36.9595C664.513 36.8497 659.076 36.3005 656.66 35.8612C656.052 35.7369 655.403 35.6056 654.749 35.4735C652.804 35.0804 650.823 34.68 649.795 34.4333C648.422 34.1587 644.578 33.7743 641.283 33.6645C636.616 33.4997 634.474 33.6645 631.948 34.4333C630.135 34.9825 627.39 36.3555 625.907 37.4538C624.369 38.6071 621.898 39.8702 620.415 40.3095C618.878 40.7489 614.1 41.9571 609.707 43.0005C605.313 44.0439 599.932 45.1423 597.735 45.4718C595.154 45.8562 580.217 46.0759 554.901 46.0759C525.466 46.0759 515.526 46.2406 513.878 46.7898C512.231 47.2841 503.06 47.4488 476.81 47.4488C453.306 47.4488 440.346 47.2292 436.996 46.7898C433.317 46.3505 427.386 46.2956 414.206 46.68C404.376 46.9546 392.514 47.2292 387.846 47.2841C379.499 47.339 379.17 47.2841 372.745 45.362C369.12 44.2636 361.597 42.012 355.995 40.3644C350.394 38.7169 342.87 36.7399 339.246 35.9161C335.622 35.0923 331.558 34.4333 330.185 34.4333C329.012 34.4333 323.633 34.4734 317.469 34.5193L314.259 34.5432C302.342 34.5981 300.256 34.4883 296.137 33.4448C293.556 32.8407 288.504 31.3579 284.879 30.2047C281.308 29.0143 273.846 26.5979 268.112 24.7411L267.855 24.658C262.144 22.7908 254.346 20.5941 250.557 19.7154C246.768 18.8916 242.704 18.0679 241.496 17.9031C240.287 17.7384 238.036 17.8482 236.553 18.1228ZM869.733 54.2039C864.681 56.0711 863.473 56.785 855.565 63.1005C850.842 66.8899 846.998 70.0202 847.108 70.13C847.163 70.1849 851.172 69.7456 856.005 69.0866C864.242 67.9882 865.121 67.7685 869.953 65.4071C872.809 63.9792 876.763 61.453 878.74 59.8055C881.101 57.8284 882.419 56.2358 882.529 55.4121C882.639 54.6432 882.419 53.7645 881.98 53.3801C881.595 52.9957 879.893 52.6113 878.245 52.4465C875.719 52.2268 874.346 52.5014 869.733 54.2039ZM1728.62 60.3546C1728.45 60.6842 1728.45 61.3432 1728.62 61.8923C1728.78 62.3866 1732.57 65.0776 1737.02 67.8784C1741.47 70.6242 1747.18 73.9193 1749.76 75.1275C1752.34 76.3357 1756.3 77.7635 1758.55 78.2029C1760.8 78.6971 1765.14 79.2463 1768.16 79.4111C1771.18 79.5758 1774.64 79.5758 1775.85 79.3562L1778.04 78.9717C1773.32 74.6882 1770.02 72.5464 1767.44 71.2833C1764.64 69.9652 1762.17 69.1415 1760.91 69.1415C1759.76 69.1415 1757.45 68.7021 1755.8 68.098C1754.15 67.4939 1750.8 66.1759 1748.39 65.0776C1745.97 64.0341 1741.14 62.3866 1737.68 61.453C1734.22 60.5743 1730.81 59.8055 1730.16 59.8055C1729.5 59.8055 1728.84 60.0251 1728.62 60.3546Z" fill="#3F41A5"/>
<path d="M929.866 8.62205C932.118 8.01796 935.742 7.19419 937.829 6.75485C940.245 6.31551 943.485 6.15075 946.616 6.31551C949.361 6.48026 951.943 6.80977 952.382 7.08435C953.096 7.5237 953.096 7.57861 952.382 7.8532C951.943 7.96304 950.185 8.51221 948.538 9.06139C946.89 9.55565 942.058 11.4778 937.829 13.2351C932.832 15.3769 927.45 17.1343 922.453 18.3425C918.224 19.331 912.733 20.3195 910.261 20.4843C906.582 20.7589 905.813 20.7039 906.252 20.1548C906.527 19.7703 907.351 18.7818 908.01 17.9031C908.888 16.8597 911.744 15.3769 917.51 13.0704C922.013 11.2032 927.615 9.22614 929.866 8.62205Z" fill="#3F41A5"/>
<path d="M169.94 2.03193C170.654 1.70242 172.906 1.09833 175.047 0.713906C177.189 0.329482 181.857 -2.39238e-05 185.481 -2.39238e-05C189.106 -2.39238e-05 194.323 0.219647 197.014 0.494235C200.419 0.823741 204.263 1.81226 209.37 3.56963C213.434 4.94257 217.717 6.53518 218.87 7.13928C219.969 7.68845 221.342 8.78681 221.891 9.55565C222.385 10.3245 222.605 11.1483 222.33 11.3679C222.11 11.5876 220.847 11.972 219.584 12.1917C218.376 12.4114 216.234 12.7409 214.861 12.9606C213.489 13.1253 209.425 12.9606 205.8 12.631C202.176 12.2466 197.124 11.5876 194.543 11.1483C191.961 10.654 187.184 9.72041 183.834 9.00648C180.484 8.23763 175.816 7.08436 173.4 6.37043C169.721 5.32699 169.007 4.94257 168.897 3.89913C168.787 3.13028 169.171 2.47127 169.94 2.03193Z" fill="#3F41A5"/>
</svg>
