<?xml version="1.0" encoding="UTF-8"?>
<svg id="Layer_2" data-name="Layer 2" xmlns="http://www.w3.org/2000/svg" viewBox="0 0 78.27 59.64">
  <defs>
    <style>
      .cls-1 {
        fill: #f2f2f2;
      }
    </style>
  </defs>
  <g id="Layer_6" data-name="Layer 6">
    <path class="cls-1" d="M66.36,5.04s-.06-.08-.1-.09C61.19,2.62,55.83.95,50.33,0c-.1-.02-.21.03-.26.12-.73,1.32-1.39,2.68-1.98,4.07-5.93-.9-11.96-.9-17.89,0-.6-1.39-1.27-2.75-2.01-4.07-.05-.09-.15-.14-.26-.12-5.5.95-10.86,2.61-15.93,4.94-.04.02-.08.05-.1.09C1.74,20.19-1.04,34.97.32,49.57c0,.07.04.14.1.18,5.91,4.37,12.52,7.71,19.55,9.88.1.03.21,0,.27-.09,1.51-2.05,2.85-4.23,4-6.5.06-.12.01-.27-.11-.33,0,0-.02,0-.03-.01-2.11-.81-4.15-1.78-6.11-2.91-.12-.07-.16-.22-.09-.34.02-.03.04-.05.06-.07.41-.31.82-.63,1.21-.95.07-.06.17-.07.25-.03,12.81,5.85,26.68,5.85,39.34,0,.08-.04.18-.03.26.03.39.32.8.65,1.22.95.11.08.13.24.05.35-.02.03-.04.05-.07.07-1.95,1.14-3.99,2.11-6.11,2.91-.13.05-.19.19-.14.32,0,0,0,.02.01.03,1.17,2.26,2.51,4.43,4,6.5.06.09.17.12.27.09,7.04-2.15,13.66-5.49,19.58-9.88.06-.04.1-.11.1-.18,1.63-16.88-2.73-31.54-11.57-44.53ZM26.16,40.68c-3.86,0-7.03-3.54-7.03-7.89s3.12-7.89,7.03-7.89,7.1,3.57,7.03,7.89c0,4.35-3.12,7.89-7.03,7.89ZM52.17,40.68c-3.86,0-7.03-3.54-7.03-7.89s3.12-7.89,7.03-7.89,7.1,3.57,7.03,7.89c0,4.35-3.09,7.89-7.03,7.89Z"/>
  </g>
</svg>