<?xml version="1.0" encoding="UTF-8"?>
<svg id="Layer_2" data-name="Layer 2" xmlns="http://www.w3.org/2000/svg" viewBox="0 0 128 128">
  <defs>
    <style>
      .cls-1 {
        fill: #fff;
      }

      .cls-2 {
        fill: #001325;
      }
    </style>
  </defs>
  <g id="Steam">
    <rect class="cls-2" width="128" height="128" rx="12" ry="12"/>
    <g>
      <circle class="cls-1" cx="71.26" cy="47.35" r="10.68"/>
      <path class="cls-1" d="M70.85,23.16c-13.43,0-24.34,10.8-24.51,24.19,0,.11,0,.21,0,.32l-12.31,16.34c-5.92.15-11.21,2.82-14.85,6.99L0,63.34v14.96l14.17,5.42c0,.23-.02.46-.02.7,0,11.28,9.14,20.41,20.42,20.41s20.64-9.28,20.64-20.56c0-.67-.01-.98-.07-1.63h0l14.04-10.44h0c.57.04,1.09,0,1.68,0,13.55,0,24.52-10.98,24.52-24.52s-10.98-24.52-24.52-24.52ZM35.87,96.64c-5.99.24-11.07-3.83-12.39-9.35l8.46,3.24h0l1.88.72c.58.22,1.19.37,1.81.38,0,0,0,0,.01,0,3.8,0,6.88-3.08,6.88-6.87,0-.19,0-.38-.02-.56-.2-2.51-1.95-4.64-4.29-5.57l-1.72-.69-8.36-3.35c2.02-1.5,4.53-2.38,7.24-2.38,6.94,0,12.53,5.79,12.21,12.8-.29,6.25-5.45,11.38-11.7,11.64ZM71.26,62.47c-8.35,0-15.12-6.76-15.12-15.12s6.77-15.12,15.12-15.12,15.12,6.77,15.12,15.12-6.76,15.12-15.12,15.12Z"/>
    </g>
  </g>
</svg>