<?xml version="1.0" encoding="UTF-8"?>
<svg id="Layer_2" data-name="Layer 2" xmlns="http://www.w3.org/2000/svg" viewBox="0 0 128 128">
  <defs>
    <style>
      .cls-1 {
        fill: #fff;
      }

      .cls-2 {
        fill: #001325;
      }
    </style>
  </defs>
  <g id="Layer_7" data-name="Layer 7">
    <rect class="cls-2" x="0" width="128" height="128" rx="12" ry="12"/>
    <g>
      <path class="cls-1" d="M55.35,67.25l-23.42-34.07h19.8l14.62,21.27,18.31-21.27h7.79l-22.64,26.31,24.26,35.33-19.8-.03-15.47-22.5-19.36,22.5-7.8.05,23.71-27.58ZM83.2,89.1l-34.98-50.05h-5.47l34.99,50.05h5.46Z"/>
      <path class="cls-1" d="M28.36,96.35l25.1-29.2L29.08,31.68h23.44l13.97,20.32,17.49-20.32h11.75l-24.02,27.91,25.22,36.74-23.44-.04-14.82-21.55-18.54,21.54-11.78.07ZM75.06,93.29l16.16.03-23.3-33.93,21.26-24.71h-3.83l-19.13,22.23-15.28-22.23h-16.16l22.46,32.67-22.32,25.96,3.83-.02,20.18-23.46,16.13,23.46Z"/>
    </g>
  </g>
</svg>