<svg width="1390" height="331" viewBox="0 0 1390 331" fill="none" xmlns="http://www.w3.org/2000/svg">
<path fill-rule="evenodd" clip-rule="evenodd" d="M370.062 105.567V107.235C370.062 108.643 369.877 109.087 368.84 110.125C367.766 111.162 367.877 112.607 367.877 112.607C367.877 112.607 367.84 163.066 367.84 183.67C367.84 212.422 367.766 236.171 367.655 236.356C367.544 236.542 365.692 237.764 363.544 239.061C361.395 240.321 358.766 242.025 357.729 242.803C356.507 243.73 353.358 245.286 349.136 247.027C345.469 248.509 340.544 250.399 338.21 251.177C335.877 251.955 332.21 253.029 330.062 253.548C327.914 254.03 325.099 254.548 323.766 254.697C321.692 254.919 321.247 254.845 320.432 254.215C319.914 253.807 318.581 253.14 317.47 252.696C316.358 252.288 314.025 251.066 312.284 250.028C310.544 249.028 308.21 247.472 307.099 246.619C305.988 245.767 303.692 243.952 301.988 242.581C300.321 241.173 298.507 239.95 297.914 239.802C297.358 239.654 296.655 239.061 296.284 238.394C295.951 237.801 294.21 235.949 289.136 231.392L289.062 264.737C289.023 277.253 289.062 286.948 289.062 304.266C289.062 306.399 285.631 309.983 284.927 311.058C278.815 318.359 256.795 326.019 244.136 326.019C241.992 326.019 235.896 326.977 237.803 322.685C238.025 322.166 238.618 321.536 239.136 321.314C246.017 317.872 249.507 313.435 249.507 308.05L249.321 227.835C249.099 149.213 249.136 147.583 249.84 146.323C250.247 145.545 250.47 144.656 250.358 144.1C250.247 143.581 250.321 142.581 250.507 141.877C250.692 141.173 251.025 140.173 251.284 139.654C251.507 139.135 252.358 137.727 253.173 136.505C259.837 126.03 269.411 118.508 279.321 111.347C280.655 110.384 282.321 109.532 283.025 109.421C283.766 109.309 284.47 109.384 284.692 109.606C284.877 109.828 285.395 110.013 285.803 110.013C286.21 110.013 286.877 110.347 287.284 110.791C287.988 111.533 288.025 112.014 287.914 120.721C287.877 125.723 287.951 130.317 288.099 130.873C288.395 131.91 288.433 131.91 290.988 128.687C292.433 126.946 294.914 124.204 296.581 122.648C298.766 120.573 300.062 119.647 301.47 119.202C302.544 118.831 303.951 118.053 304.618 117.461C305.247 116.868 307.284 115.645 309.136 114.756C310.988 113.867 314.655 112.274 317.284 111.236C319.951 110.199 323.581 108.902 325.432 108.346C327.284 107.79 329.692 107.049 330.803 106.679C331.914 106.308 333.173 105.938 333.581 105.827C333.988 105.716 342.358 105.641 370.062 105.567ZM324.321 122.981C323.321 123.241 320.729 124.204 318.581 125.13C316.432 126.019 314.025 127.131 313.21 127.538C312.395 127.983 309.321 129.91 306.358 131.836C303.395 133.726 299.766 136.319 298.284 137.579C296.766 138.839 295.062 140.728 294.358 141.877C293.655 142.989 292.173 145.656 291.025 147.805L288.951 151.696C288.914 219.128 288.951 221.017 289.581 221.61C289.951 221.944 290.655 222.277 291.173 222.351C291.766 222.425 292.284 222.87 292.655 223.611C292.951 224.241 293.618 225.167 294.136 225.612C294.655 226.056 295.988 227.131 297.099 227.983C298.21 228.835 300.062 230.095 301.173 230.762L303.21 232.021C306.951 230.502 312.618 228.539 318.21 226.686C323.803 224.834 328.432 223.278 328.469 223.278C328.544 223.24 328.321 222.462 327.988 221.536C327.507 220.054 327.469 215.312 327.581 182.633C327.692 160.143 327.914 143.285 328.136 140.025C328.358 137.06 328.729 132.059 328.951 128.909C329.173 125.76 329.395 122.796 329.469 122.351C329.544 121.87 329.469 121.499 329.358 121.499C329.247 121.536 328.469 121.759 327.655 122.018C326.84 122.314 325.358 122.722 324.321 122.981ZM513.395 105.567V106.975C513.395 107.716 513.136 108.754 512.766 109.272C512.432 109.791 511.951 110.31 511.766 110.458C511.469 110.606 511.321 127.131 511.247 164.737C511.21 194.452 511.173 222.722 511.173 236.356L509.803 237.209C499.995 243.282 490.82 248.24 479.692 251.77C475.485 253.104 470.987 254.505 466.543 254.622C463.95 254.707 460.864 252.905 458.506 251.695C448.279 246.58 441.171 238.207 432.284 231.54V264.885C432.284 286.745 432.173 298.305 431.914 298.416C431.729 298.528 431.543 299.973 431.543 301.677C431.543 304.345 431.432 305.011 430.395 307.123C424.297 319.059 393.081 325.019 393.081 325.019C393.081 325.019 382.166 327.697 381.136 325.019C380.951 324.537 380.803 324.093 380.803 323.981C380.803 323.87 381.692 323.389 382.766 322.87C383.803 322.388 385.099 321.573 385.618 321.128C387.771 319.128 389.762 317.649 391.062 314.904C391.395 314.2 391.951 312.273 392.247 310.643C392.766 307.975 392.803 299.528 392.655 227.65C392.469 157.105 392.506 147.472 392.988 146.508C393.321 145.916 393.581 144.471 393.618 143.359C393.642 142.001 393.963 140.704 394.581 139.469C400.207 128.614 413.688 113.94 425.247 109.68C426.284 109.272 426.766 109.235 427.655 109.569C428.284 109.828 429.025 110.013 429.321 110.013C429.618 109.976 430.21 110.347 430.618 110.791C431.321 111.533 431.358 112.014 431.247 120.906C431.173 126.019 431.284 130.614 431.469 131.132C431.766 132.059 431.803 132.022 433.025 130.206C433.729 129.206 436.136 126.464 438.395 124.204C441.914 120.61 442.766 119.906 444.692 119.202C445.914 118.757 447.506 117.868 448.21 117.201C448.914 116.571 451.358 115.201 453.58 114.2C455.803 113.163 459.395 111.644 461.543 110.829C463.692 110.013 466.914 108.865 468.766 108.309C470.617 107.79 473.025 107.012 474.136 106.642C475.247 106.308 476.506 105.901 476.914 105.827C477.321 105.716 485.692 105.641 513.395 105.567ZM467.84 122.981C466.506 123.315 464.099 124.167 462.469 124.834C460.84 125.464 458.58 126.501 457.469 127.057C456.358 127.613 454.506 128.65 453.395 129.354C452.284 130.021 449.692 131.688 447.655 133.059C445.617 134.393 442.655 136.616 441.099 137.95C439.506 139.284 438.099 140.691 437.951 141.062C437.803 141.395 437.099 142.766 436.358 144.1C435.617 145.434 434.395 147.62 433.655 149.028L432.284 151.51C432.247 219.091 432.284 221.017 432.914 221.61C435.779 224.19 439.045 227.292 442.469 229.576C443.692 230.391 445.062 231.243 445.543 231.466C446.21 231.836 446.766 231.762 448.506 231.132C449.655 230.725 453.951 229.243 458.025 227.835C462.099 226.464 466.877 224.871 468.692 224.352L471.914 223.389C470.877 220.128 470.803 215.312 470.803 186.708C470.84 168.48 470.988 150.473 471.173 146.694C471.358 142.914 471.692 137.098 471.877 133.726C472.099 130.354 472.358 126.242 472.469 124.574C472.617 122.87 472.543 121.499 472.395 121.536C472.247 121.536 471.692 121.721 471.173 121.944C470.655 122.129 469.173 122.611 467.84 122.981ZM37.8403 176.371C51.1452 176.265 62.4945 181.426 71.8402 191.117C74.1365 193.489 76.655 196.342 77.3958 197.453C78.1735 198.565 78.9883 199.899 79.2476 200.417C79.5069 200.936 79.8402 202.085 80.0624 203.011C80.2476 203.937 80.618 205.382 80.8772 206.234C81.2476 207.494 81.2476 207.901 80.9143 208.272C80.5439 208.643 80.1365 208.42 78.8772 207.012C77.9883 206.049 76.9883 205.234 76.655 205.234C76.2846 205.234 75.2846 204.271 74.4328 203.122C68.3965 195.071 56.6183 190.369 46.7291 189.228C44.8032 189.043 40.4699 188.783 37.0995 188.709C27.4607 188.408 11.7712 190.85 11.544 203.122C11.544 204.826 11.7292 205.938 12.2107 206.679C12.544 207.272 13.4329 208.198 14.1366 208.717C14.8403 209.272 15.8773 209.68 16.4699 209.68C17.4329 209.68 17.4329 209.643 16.9144 208.865C16.6181 208.383 16.3588 207.235 16.3588 206.271C16.3588 205.271 16.5069 204.122 16.6921 203.678C16.8773 203.159 17.8403 202.418 18.9884 201.862C20.2847 201.232 21.9884 200.788 23.7662 200.602C31.0742 199.892 36.7291 206.356 36.7291 213.311C36.7291 221.861 32.2975 223.086 25.9884 226.242C24.1366 227.131 23.544 227.242 19.6921 227.242C6.77188 227.242 -0.487687 215.187 0.0254872 203.011C0.466044 192.557 7.79768 185.674 16.1736 181.632C23.1317 178.215 30.1088 176.371 37.8403 176.371ZM1386.58 224.315C1388.37 230.568 1391.55 240.19 1388.69 246.286C1380.9 262.388 1354.45 269.803 1337.57 268.092C1322.75 266.634 1304.8 264.497 1290.62 257.401C1289.8 256.994 1288.84 256.364 1288.47 256.03C1287.88 255.475 1287.8 254.474 1287.84 243.507C1287.84 235.912 1287.99 231.466 1288.21 231.355C1288.43 231.243 1290.32 232.948 1292.47 235.171C1294.62 237.357 1297.06 239.654 1297.88 240.247C1307.78 247.53 1319.79 255.242 1336.55 256.03C1351.46 256.732 1363.66 257.021 1373.51 247.175C1374.69 246.027 1376.17 244.285 1376.76 243.322C1377.36 242.322 1377.95 241.099 1378.13 240.58C1378.28 240.024 1378.62 239.506 1378.84 239.358C1379.21 239.172 1379.13 238.505 1378.54 236.356C1378.13 234.837 1377.17 232.429 1376.43 230.984C1375.13 228.465 1375.06 228.428 1374.88 229.502C1373.24 236.054 1366.79 237.838 1360.62 237.838C1354.07 237.838 1347.6 235.278 1347.69 227.872C1347.69 218.072 1352.47 212.184 1361.73 210.977C1370.84 209.789 1383.67 214.49 1386.58 224.315ZM1041.43 0.00982098C1061.1 -0.0272298 1069.57 0.00981028 1070.87 0.676723C1073.97 2.15485 1067.75 6.25307 1065.25 8.75379C1064.65 9.42071 1064.1 10.0135 1064.02 10.0506C1063.99 10.1247 1054.51 10.2358 1021.91 10.5322L1025.51 12.3848C1027.51 13.3851 1030.62 15.0895 1032.47 16.1269C1034.28 17.1643 1036.8 18.6093 1038.02 19.3133C1039.25 20.0543 1041.65 21.6845 1043.39 22.9813C1045.14 24.241 1048.25 27.0198 1050.32 29.1317C1052.43 31.2065 1054.28 32.9479 1054.51 32.9479C1054.76 32.9479 1054.88 45.397 1054.88 69.517C1054.84 102.492 1054.91 106.16 1055.43 106.679C1055.76 106.975 1056.02 107.494 1056.02 107.79C1055.99 108.087 1056.39 109.161 1056.88 110.199C1057.36 111.199 1058.8 113.459 1060.1 115.201C1061.39 116.942 1063.51 119.424 1064.76 120.758C1066.02 122.092 1067.1 123.426 1067.1 123.722C1067.14 124.019 1066.58 124.834 1065.91 125.501C1062.62 128.792 1058.28 130.532 1055.43 134.65C1054.81 135.549 1054.43 138.542 1054.43 138.542C1054.43 138.542 1054.73 141.099 1054.65 142.618C1054.58 144.137 1054.43 156.401 1054.32 169.85C1054.14 189.376 1054.21 196.786 1054.65 206.531C1054.99 213.237 1055.25 223.389 1055.25 229.02C1055.25 236.245 1055.39 239.617 1055.69 240.321C1055.95 240.914 1056.69 242.247 1057.36 243.285C1058.02 244.359 1059.69 246.434 1061.06 247.879C1062.47 249.324 1064.99 251.473 1066.73 252.659C1068.47 253.844 1070.47 255.03 1071.17 255.326C1071.88 255.66 1073.43 256.067 1074.58 256.327C1076.36 256.66 1076.73 256.883 1076.73 257.475C1076.73 257.883 1076.43 258.328 1076.06 258.476C1075.73 258.624 1058.17 258.809 1037.1 258.883C1006.21 258.957 998.728 258.883 998.506 258.513C998.357 258.253 998.209 257.809 998.209 257.549C998.209 257.327 998.765 256.623 999.395 256.03C1000.06 255.4 1001.28 254.734 1002.1 254.511C1002.91 254.289 1005.36 253.177 1011.54 250.065H1026.06C1039.02 250.065 1040.54 250.028 1039.88 249.509C1039.47 249.213 1038.73 248.991 1038.21 248.991C1037.65 248.991 1035.88 247.916 1033.58 246.249C1031.39 244.619 1027.69 241.247 1024.54 237.987C1021.58 234.948 1017.95 231.058 1016.43 229.317C1014.95 227.575 1013.62 225.76 1013.51 225.241C1013.39 224.723 1012.8 223.24 1011.1 219.498L1011.17 114.328L1010.32 114.106C1009.84 113.476 1008.65 112.624 1007.73 112.142C993.384 105.519 979.12 98.8317 963.395 96.1194V136.208C963.395 164.07 963.506 174.259 963.839 175.223C964.135 176.186 964.284 191.71 964.358 235.986C964.432 276.223 964.58 296.008 964.839 297.12C965.135 298.342 967.04 302.762 969.335 305.285C971.991 308.205 978.333 309.869 978.333 309.869C978.333 309.869 977.061 311.236 976.543 311.458C969.066 315.198 953.303 309.305 947.098 305.975C945.58 305.16 943.432 303.789 942.321 302.937C928.393 291.886 921.135 279.308 921.135 262.107C921.135 245.827 920.617 252.177 920.543 220.425C920.506 198.305 920.469 152.288 920.432 118.165C920.432 84.0409 920.506 53.1035 920.617 49.4355C920.728 45.7675 920.691 39.58 920.469 35.7267C920.172 30.0209 919.876 27.8349 918.987 24.0557C918.358 21.4992 917.506 17.9053 917.098 16.0898C916.691 14.2373 915.913 11.829 915.395 10.7175C914.876 9.60596 913.95 7.79047 913.284 6.716C912.362 5.21104 910.893 3.99405 909.876 2.49222C909.876 2.49222 913.617 3.45554 917.284 4.56706C920.95 5.67858 924.691 6.82716 925.617 7.16061C926.543 7.45702 929.987 8.45739 933.284 9.38366C936.95 10.4211 940.098 11.5326 941.247 12.2366C942.321 12.8664 944.135 14.015 945.246 14.7931C946.358 15.5711 948.209 16.7568 949.32 17.4978C950.432 18.2017 952.284 19.7949 953.432 20.9805C954.58 22.1662 956.098 24.0557 956.802 25.1673C965.126 38.3147 962.648 60.7051 962.839 74.7041C979.692 78.9603 996.501 85.2424 1009.69 91.5051V69.8134C1009.69 57.7719 1010.06 41.2843 1010.06 41.2843V16.1861C1010.06 16.1861 1010.06 11.8306 1009.23 10.8761C1007.85 9.28046 1008.21 9.79121 1004.06 9.30955C1002.53 9.13695 990.558 0.380328 990.558 0.380328C999.047 0.380328 1008.22 0.380328 1016.54 0.380328C1018.8 0.232125 1029.99 0.0468717 1041.43 0.00982098ZM1143.02 2.49222C1143.54 2.60337 1146.36 3.41849 1149.32 4.30771C1152.28 5.23397 1155.76 6.30844 1157.1 6.716C1158.43 7.12356 1162.39 8.27213 1165.88 9.2725C1169.76 10.384 1173.06 11.5326 1174.21 12.2366C1175.28 12.8664 1177.1 14.015 1178.21 14.7931C1179.32 15.5711 1181.17 16.7568 1182.28 17.4978C1183.39 18.2017 1185.25 19.7949 1186.39 20.9805C1187.54 22.1662 1189.06 24.0557 1189.76 25.1673C1190.47 26.2788 1191.47 28.2795 1191.99 29.6134C1192.51 30.9472 1193.14 32.7627 1193.39 33.6889C1193.65 34.6152 1193.99 36.8382 1194.14 38.6908C1194.32 40.5063 1194.99 44.6189 1194.99 44.6189C1194.99 44.6189 1197.54 155.589 1197.62 202.159C1197.73 240.84 1197.95 277.89 1198.17 284.522C1198.36 291.154 1198.69 298.713 1198.88 301.38C1199.06 304.159 1199.51 306.975 1199.88 308.05C1200.25 309.05 1200.88 310.495 1201.28 311.199C1201.65 311.903 1202.58 313.311 1203.32 314.348C1204.02 315.349 1205.39 316.979 1206.32 317.942C1207.47 319.165 1207.91 319.832 1207.65 320.091C1207.39 320.35 1206.95 320.387 1206.36 320.128C1205.84 319.943 1204.36 319.498 1203.02 319.128C1201.69 318.794 1199.84 318.016 1198.84 317.423C1197.62 316.682 1196.91 316.497 1196.43 316.719C1196.06 316.905 1195.06 316.831 1193.95 316.534C1192.91 316.275 1189.84 315.423 1187.1 314.608C1184.36 313.792 1181.43 312.866 1180.62 312.57C1179.8 312.273 1177.62 311.384 1175.8 310.643C1173.99 309.902 1171.39 308.828 1170.06 308.309C1168.28 307.568 1167.06 306.716 1165.43 305.048C1164.21 303.789 1162.73 302.047 1162.1 301.158C1161.51 300.269 1160.88 299.454 1160.76 299.343C1160.65 299.232 1159.88 297.972 1159.02 296.564C1157.76 294.378 1157.36 293.192 1156.58 289.154C1156.06 286.486 1155.47 283.411 1155.25 282.299C1155.06 281.188 1154.73 279.076 1154.47 277.668C1154.25 276.223 1153.95 274.408 1153.8 273.592C1153.65 272.777 1153.69 270.443 1153.91 268.405C1154.17 265.775 1154.14 263.663 1153.84 261.18C1153.51 258.587 1153.39 228.057 1153.39 144.841C1153.39 71.8882 1153.25 31.0954 1152.99 29.4281C1152.8 27.9831 1152.32 25.6489 1151.91 24.241C1151.51 22.796 1150.88 19.9802 1150.47 17.9424C1150.1 15.9046 1149.39 13.311 1148.95 12.1995C1148.54 11.088 1147.47 8.93905 1146.62 7.45702C1145.62 5.71563 1144.84 4.78937 1144.39 4.78937C1144.06 4.78937 1143.02 4.60411 1142.1 4.41886C1140.8 4.12245 1140.43 3.90015 1140.43 3.30734C1140.43 2.82568 1140.73 2.52927 1141.25 2.45517C1141.73 2.38107 1142.51 2.38107 1143.02 2.49222ZM1216.84 2.82568C1217.88 3.12208 1220.69 3.97425 1223.02 4.67821C1225.36 5.38218 1228.36 6.30844 1229.69 6.716C1231.02 7.12356 1234.84 8.23508 1238.21 9.1984C1242.73 10.4581 1245.06 11.3473 1247.1 12.533C1248.62 13.4592 1249.95 14.3114 1250.06 14.4226C1250.17 14.5708 1251.58 15.497 1253.21 16.4974C1254.84 17.4978 1257.25 19.3874 1258.58 20.7212C1259.91 22.055 1261.69 24.3151 1262.54 25.723C1263.39 27.168 1264.62 29.8727 1265.25 31.7252C1265.99 34.0965 1266.36 35.912 1266.36 37.4681C1266.36 38.7649 1267.1 42.7664 1267.1 42.7664C1267.1 42.7664 1269.75 173.123 1269.69 223.759C1269.65 273.407 1269.69 280.262 1270.21 283.226C1270.54 285.041 1270.8 287.894 1270.8 289.524C1270.8 291.191 1271.13 293.785 1271.54 295.452C1271.95 297.083 1272.73 299.75 1273.32 301.38C1273.91 303.011 1274.76 305.086 1275.25 306.012C1275.73 306.938 1276.88 308.865 1277.84 310.273C1278.8 311.681 1280.65 313.941 1281.95 315.237C1283.25 316.534 1284.76 317.868 1285.36 318.201C1285.91 318.535 1286.36 319.017 1286.36 319.239C1286.36 319.498 1285.91 319.943 1285.39 320.165C1284.62 320.573 1283.88 320.536 1281.76 320.165C1280.32 319.943 1277.13 319.054 1274.69 318.201C1271.76 317.238 1269.43 316.682 1267.84 316.608C1265.8 316.497 1264.51 316.053 1259.32 313.755C1255.95 312.273 1252.73 310.791 1252.1 310.421C1251.47 310.087 1250.06 309.495 1248.95 309.124C1247.84 308.754 1245.17 307.568 1243.02 306.456C1240.88 305.382 1238.06 303.678 1236.73 302.677C1235.39 301.677 1233.39 299.898 1232.25 298.713C1231.1 297.527 1229.39 295.378 1228.43 293.97C1227.47 292.562 1226.58 290.784 1226.47 290.08C1226.36 289.376 1226.32 286.449 1226.43 283.596C1226.62 279.558 1226.54 278.001 1226.1 276.556C1225.62 274.963 1225.54 272.444 1225.73 258.957C1225.88 250.288 1225.95 196.453 1225.95 139.284C1225.99 76.5566 1225.84 33.8001 1225.62 31.4659C1225.43 29.3169 1225.02 26.6493 1224.69 25.5378C1224.39 24.4263 1223.8 21.8327 1223.39 19.7949C1222.99 17.7571 1222.36 15.1636 1222.06 14.052C1221.73 12.9405 1220.88 10.8286 1220.17 9.42071C1219.43 7.97573 1218.58 6.4196 1218.21 5.90089C1217.8 5.30808 1217.06 4.86347 1216.02 4.67821C1214.8 4.45591 1214.51 4.27066 1214.43 3.56669C1214.39 3.08503 1214.51 2.60337 1214.65 2.45517C1214.76 2.34402 1215.76 2.49222 1216.84 2.82568ZM1227.47 4.2336C1224.47 3.48289 1230.33 5.01554 1227.47 4.2336V4.2336ZM228.655 15.5711C228.84 15.5341 228.951 16.2751 228.951 17.2014C228.951 18.4611 228.692 19.165 227.988 20.0543C227.433 20.7212 226.544 22.2403 225.951 23.3888C225.359 24.5745 224.877 25.8342 224.877 26.1676C224.877 26.5381 224.544 27.7238 224.136 28.7612C223.396 30.6878 223.396 31.3918 223.581 60.8101C223.692 77.3717 223.766 102.677 223.766 117.053C223.766 131.429 223.766 146.249 223.766 150.028C223.766 153.807 223.803 175.89 223.877 199.12C223.914 228.502 224.099 243.063 224.433 246.916C225.105 256.106 226.821 269.004 233.544 275.927C234.766 277.223 236.766 278.891 237.951 279.632C239.136 280.373 240.099 281.225 240.062 281.447C240.062 281.818 239.358 281.892 237.358 281.781C235.914 281.707 233.692 281.447 232.47 281.225C231.247 281.04 228.581 280.521 226.544 280.113C224.507 279.706 222.321 279.224 221.729 279.002C210.585 275.723 192.321 264.225 187.173 253.77C186.359 252.029 185.322 249.546 184.914 248.213C184.433 246.805 184.136 244.841 184.136 243.47C184.136 242.21 183.803 239.95 183.433 238.468C183.025 237.023 182.581 234.874 182.173 231.725L181.47 232.54C176.16 239.369 133.384 251.348 123.21 254.363C122.173 254.659 120.692 254.882 119.877 254.882C118.951 254.845 117.692 254.437 116.544 253.807C115.322 253.103 113.729 251.621 111.914 249.398C105.766 242.047 99.8579 234.176 94.8772 225.982C93.2476 223.24 91.692 220.388 91.5068 219.684C91.2105 218.794 91.1735 205.123 91.3587 175.037C91.4698 151.177 91.5809 130.688 91.5809 129.465C91.5809 128.242 91.3957 114.904 91.1735 99.8245C90.9513 84.7448 90.655 63.8482 90.2476 34.43L88.3957 32.0587C87.3587 30.7619 85.8772 29.2428 85.0624 28.65C84.2476 28.0943 82.8402 26.9828 81.9143 26.2417C80.9883 25.5007 78.7291 23.8334 76.9143 22.5367C75.0624 21.2769 72.6921 19.832 71.618 19.3503C70.5439 18.8686 69.6921 18.2388 69.6921 17.9424C69.6921 17.646 70.2847 17.1273 70.9884 16.8309C72.0995 16.3492 76.8772 16.2751 106.433 16.2751C132.84 16.2751 140.84 16.3862 141.507 16.7568C142.025 16.9791 142.47 17.3496 142.507 17.5719C142.581 17.7571 141.84 18.5722 140.877 19.3503C139.914 20.0913 138.21 21.5733 135.062 24.4263L100.655 24.6115L104.544 26.8716C119.073 35.5415 133.334 44.9075 134.433 62.9906C134.548 64.8847 134.099 68.254 134.099 68.254C134.099 68.254 133.988 72.5181 134.099 124.278C134.173 163.626 134.396 180.669 134.099 183.559C133.877 185.782 133.618 193.637 133.396 214.311L134.951 216.386C135.84 217.535 137.025 219.054 137.655 219.721C138.248 220.425 139.84 221.981 141.173 223.166C142.507 224.389 145.025 226.353 146.803 227.538C149.655 229.428 150.173 229.65 151.062 229.354C151.655 229.169 153.84 228.909 155.988 228.798C158.136 228.687 162.025 228.168 164.692 227.65C167.322 227.131 170.173 226.538 170.988 226.279C171.803 226.056 172.877 225.575 173.396 225.278C173.914 224.945 175.062 224.315 175.988 223.87C176.914 223.426 178.062 222.611 178.581 222.055C179.433 221.166 181.47 216.386 181.47 216.386C181.47 216.386 182.772 111.045 181.544 55.9194L183.364 51.2754C191.036 38.8963 212.237 15.5711 228.655 15.5711ZM1082.51 52.2143C1082.88 52.2143 1084.36 52.6589 1085.8 53.1776C1087.21 53.7334 1088.8 54.3262 1089.32 54.5855C1089.84 54.8079 1091.25 55.5489 1092.47 56.2528C1093.69 56.9197 1097.1 58.7352 1100.06 60.2914C1103.02 61.8104 1106.69 63.8112 1108.21 64.7374C1109.73 65.6637 1113.21 67.8127 1115.95 69.5911C1118.84 71.4436 1121.1 73.148 1121.36 73.7037C1121.62 74.2224 1121.84 76.4455 1121.88 78.8908C1121.91 81.225 1122.02 83.4851 1122.1 83.8927C1122.21 84.3002 1122.43 88.9686 1122.65 94.2669C1122.91 100.788 1122.91 104.011 1122.65 104.271C1122.41 104.518 1121.89 104.196 1121.1 103.307C1120.43 102.566 1119.21 101.64 1118.39 101.232C1117.58 100.788 1114.91 99.2687 1112.47 97.8237C1110.02 96.3788 1107.99 95.1931 1107.91 95.1931C1107.88 95.1931 1106.62 94.4892 1105.14 93.6C1103.69 92.7107 1101.54 91.4881 1100.43 90.8582C1099.32 90.2283 1096.47 88.6352 1094.14 87.3384C1091.8 86.0046 1089.28 84.5966 1088.58 84.1891C1087.88 83.7815 1086.17 82.8553 1082.28 80.7434V72.1105C1082.28 67.4051 1082.17 60.9583 1082.02 57.846C1081.8 52.4737 1081.84 52.2143 1082.51 52.2143ZM893.95 62.6256C894.95 62.8479 896.617 63.3295 897.654 63.7C898.654 64.0705 900.321 64.4781 901.358 64.5892C902.358 64.7004 903.95 64.9227 904.876 65.0709C905.839 65.2562 907.209 65.886 908.098 66.59C908.987 67.2198 909.839 67.7756 910.061 67.7756C910.284 67.7756 910.395 70.7026 910.321 76.0009C910.247 84.0038 910.209 84.2632 909.506 84.152C909.098 84.115 907.913 83.8927 906.913 83.7074C905.876 83.4851 903.209 82.8923 900.987 82.3736C898.728 81.8919 895.654 81.225 894.135 80.9286C857.183 73.7157 815.154 78.3497 779.684 92.5432C778.239 93.173 777.017 93.5065 777.017 93.3212C777.017 93.0742 776.77 93.0742 776.276 93.3212C775.869 93.5065 775.536 93.5806 775.536 93.3953C775.536 93.2471 776.425 92.5061 777.499 91.7281C809.309 67.8616 855.435 54.3693 893.95 62.6256ZM1085.8 102.566L1086.77 103.344C1086.77 103.344 1102.79 115.943 1111.73 121.796C1114.39 123.5 1116.51 125.278 1119.32 128.168C1121.69 130.577 1123.62 132.948 1124.21 134.133C1125.1 135.875 1125.28 136.838 1125.62 141.581C1125.8 144.619 1125.99 157.512 1125.99 170.295C1125.99 183.115 1126.17 196.49 1126.39 200.047C1126.62 203.604 1126.88 214.052 1127.28 239.876L1128.8 242.47C1129.65 243.915 1131.84 246.582 1133.73 248.472C1135.58 250.362 1137.25 251.918 1137.47 251.918C1137.65 251.918 1138.54 252.474 1139.43 253.103C1140.28 253.77 1141.84 254.697 1142.84 255.141C1143.88 255.586 1145.69 256.179 1146.88 256.438C1148.1 256.697 1149.14 257.142 1149.21 257.364C1149.28 257.624 1149.02 257.994 1148.65 258.179C1148.32 258.365 1145.17 258.624 1141.73 258.772C1135.43 258.994 1135.43 258.994 1131.91 257.883C1129.99 257.253 1126.21 256.067 1123.58 255.252C1120.91 254.4 1117.69 253.14 1116.36 252.436C1115.02 251.695 1113.32 250.621 1112.54 250.028C1111.8 249.435 1110.95 248.954 1110.69 248.954C1110.47 248.917 1109.25 248.176 1108.02 247.212C1106.8 246.286 1105.06 245.212 1104.14 244.804C1102.99 244.285 1100.88 242.47 1097.28 238.802C1094.43 235.949 1090.73 231.984 1089.02 230.058C1086.84 227.538 1085.8 226.019 1085.39 224.685C1085.06 223.648 1084.51 222.166 1084.17 221.351C1083.76 220.462 1083.39 218.424 1083.25 216.349C1083.14 214.422 1083.02 195.971 1083.02 137.987L1082.54 102.974L1083.8 102.455C1084.88 102.048 1085.14 102.048 1085.8 102.566ZM693.469 104.863C714.432 104.826 717.987 104.9 718.951 105.382C719.543 105.678 720.062 106.197 720.062 106.494C720.062 106.79 718.839 107.939 717.358 109.013C711.701 113.367 712.654 116.627 712.654 123.907C712.654 127.687 712.728 131.021 712.839 131.318C712.95 131.688 713.691 131.021 715.173 129.169C716.358 127.724 718.802 125.056 720.654 123.241C725.493 118.498 732.977 114.996 739.136 112.311C740.543 111.681 743.654 110.495 745.987 109.643C748.321 108.791 751.469 107.976 752.913 107.753C754.506 107.568 756.173 107.086 756.987 106.568C776.084 104.249 790.243 104.863 792.506 109.013C792.728 109.421 792.839 116.386 792.95 120.758C793.098 127.65 793.062 128.872 792.506 129.91C792.173 130.614 792.061 131.169 792.284 131.206C792.506 131.281 792.654 146.175 792.654 173.926C792.654 197.342 792.654 225.908 792.654 258.216H775.617C764.617 258.216 758.506 258.068 758.395 257.846C758.284 257.624 757.765 257.698 756.987 258.068C756.247 258.439 755.395 258.587 754.691 258.439C754.062 258.29 753.284 257.883 752.913 257.549C752.321 256.957 752.284 254.067 752.284 202.64C752.284 170.073 752.432 146.286 752.654 143.174C752.839 140.321 753.21 135.319 753.395 132.059C753.617 128.798 753.913 125.056 754.321 121.277L752.469 121.907C751.432 122.24 749.21 122.981 747.469 123.537C745.728 124.093 742.321 125.501 739.876 126.686C737.432 127.872 733.691 129.984 731.543 131.392C729.395 132.763 726.395 134.874 724.876 136.023C723.358 137.172 721.506 138.765 720.728 139.543C719.987 140.321 718.062 143.433 713.469 152.066L713.247 202.826C713.062 247.509 713.099 253.659 713.58 254.326C713.913 254.734 714.136 255.475 714.136 255.993C714.136 256.512 713.839 257.216 713.469 257.586C712.876 258.216 711.543 258.253 673.025 258.216L672.802 256.994C672.691 256.364 672.691 249.139 672.802 240.988C672.876 232.837 673.136 222.833 673.321 218.757C673.543 214.682 673.728 197.638 673.728 180.854C673.765 150.732 673.728 150.213 673.728 150.213C673.728 150.213 675.479 147.822 676.469 146.879C677.136 146.249 678.432 144.767 679.395 143.544C680.321 142.322 683.247 139.135 685.876 136.505C688.506 133.837 692.395 130.021 694.506 127.983C696.654 125.908 699.802 123.018 701.543 121.536C703.284 120.054 705.506 118.387 706.469 117.868C707.95 117.016 708.247 116.683 708.21 115.756C708.21 112.621 705.421 113.348 703.21 113.348C702.58 113.348 696.025 113.237 675.062 112.903L672.839 111.236C671.617 110.31 669.765 109.05 668.691 108.383C667.617 107.753 666.728 107.049 666.728 106.864C666.728 106.642 666.988 106.234 667.358 105.901C667.728 105.567 668.284 105.197 668.58 105.086C668.876 104.975 680.099 104.863 693.469 104.863ZM609.506 105.382C611.136 105.493 620.506 105.567 648.21 105.567L648.432 107.309C652.242 141.612 649.025 178.608 649.025 212.572C650.998 226.389 607.812 248.205 598.025 256.512C596.802 257.549 595.025 258.957 592.284 260.81H585.691C564.857 260.81 555.417 255.687 536.914 245.174L537.062 228.428C537.136 217.831 537.062 210.236 536.803 207.642C536.543 205.234 536.358 192.97 536.284 177.372C536.173 151.473 536.173 151.177 536.914 150.325C537.358 149.843 537.914 148.991 538.21 148.398C538.506 147.805 540.803 145.286 543.321 142.84C551.134 135.025 559.393 127.3 568.84 121.425C570.247 120.573 573.099 118.906 575.247 117.683C583.002 113.403 591.879 108.2 600.617 106.345C601.84 106.123 603.654 105.79 604.691 105.567C605.691 105.382 607.877 105.308 609.506 105.382ZM576.21 136.357C575.21 137.246 573.988 138.728 573.432 139.654L572.469 141.321C572.099 161.699 571.951 179.706 571.951 194.489L571.914 221.351C579.38 233.727 593.698 233.814 606.543 234.282L608.58 232.281C608.58 142.692 608.543 116.683 608.469 116.683C608.432 116.683 607.543 117.09 606.543 117.572C595.915 122.508 585.16 128.73 576.21 136.357ZM853.099 135.949C853.765 135.949 854.802 136.282 855.432 136.69C856.024 137.098 856.802 137.579 857.098 137.764C871.457 146.742 881.798 161.479 892.839 174.185C880.616 186.413 868.739 198.385 855.617 209.68L854.21 208.865C853.469 208.383 852.58 207.827 852.284 207.605C851.987 207.346 849.876 205.753 847.654 204.085C838.139 196.907 829.408 188.722 819.765 181.707C818.913 181.077 817.876 179.928 817.432 179.113C816.802 177.964 816.654 177.261 816.839 175.964C816.95 175.037 817.358 173.889 817.765 173.37C828.253 158.682 837.822 148.847 850.321 137.431C851.506 136.319 852.21 135.949 853.099 135.949ZM549.395 278.973C549.617 279.121 548.914 280.011 547.766 281.048C546.654 282.086 543.877 284.679 541.617 286.828C526.318 301.38 511.049 309.295 489.01 317.849C465.607 326.933 451.17 331.794 426.189 330.413C422.066 330.186 415.031 329.543 415.663 329.395C421.435 328.036 438.377 319.288 439.631 316.779C439.631 316.742 469.046 312.01 489.01 305.455C507.023 299.541 510.371 298.696 536.914 285.42C538.21 284.79 539.543 284.272 539.877 284.272C540.247 284.272 541.358 283.753 542.358 283.086C543.321 282.419 545.247 281.159 546.58 280.307C547.877 279.455 549.173 278.862 549.395 278.973ZM298.284 298.781C320.311 309.869 346.825 310.028 368.21 311.888C370.766 312.147 373.988 312.259 378.025 312.073L378.099 313.259C378.173 314.185 377.803 315.037 376.581 316.779C374.11 320.238 365.328 324.451 361.531 326.496C361.087 326.718 360.013 326.904 359.124 326.904C339.025 326.904 327.581 325.93 309.784 322.603C304.082 321.537 298.284 316.779 298.284 316.779C298.284 316.779 297.637 299.183 298.284 298.781Z" fill="white"/>
</svg>
