<svg width="593" height="314" viewBox="0 0 593 314" fill="none" xmlns="http://www.w3.org/2000/svg">
<path fill-rule="evenodd" clip-rule="evenodd" d="M37.8403 160.817C51.1452 160.71 62.4945 165.872 71.8402 175.563C73.5896 177.369 80.9143 187.849 80.9143 192.717C80.5439 193.088 80.1365 192.866 78.8772 191.458C70.4102 182.282 59.5756 175.156 46.7291 173.673C44.8032 173.488 40.4699 173.229 37.0995 173.155C27.4607 172.853 13.1699 175.279 12.9427 187.55C12.9427 189.255 13.1279 190.366 13.6094 191.107C13.9427 191.7 14.4796 192.532 15.1833 193.051C15.887 193.607 16.5823 194.131 17.1749 194.131C16.9144 193.792 16.5312 193.162 16.326 192.433C15.8479 190.735 16.4676 187.528 18.9884 186.308C20.2847 185.678 21.9884 185.233 23.7662 185.048C31.0742 184.337 36.7291 190.802 36.7291 197.756C36.7291 206.525 30.5786 211.687 19.6921 211.687C6.77188 211.687 -0.487687 199.633 0.0254872 187.456C0.466044 177.003 7.79768 170.119 16.1736 166.078C23.1317 162.661 30.1088 160.817 37.8403 160.817ZM228.655 0.0164681C228.84 -0.0205827 228.951 0.720433 228.951 1.6467C228.951 2.90643 228.692 3.61039 227.988 4.49961C227.433 5.16652 226.544 6.6856 225.951 7.83417C225.359 9.0198 224.877 10.2795 224.877 10.613C224.877 10.9835 224.544 12.1691 224.136 13.2065C223.396 15.1332 223.396 15.8371 223.581 45.2554C223.692 61.8171 223.766 87.1227 223.766 101.498C223.766 115.874 223.766 130.694 223.766 134.474C223.766 138.253 223.803 160.335 223.877 183.566C223.914 212.947 224.099 227.508 224.433 231.361C225.105 240.551 226.821 253.449 233.544 260.372C234.766 261.669 236.766 263.336 237.951 264.077C239.136 264.818 240.099 265.67 240.062 265.892C240.062 266.263 239.358 266.337 237.358 266.226C235.914 266.152 233.692 265.892 232.47 265.67C231.247 265.485 228.581 264.966 226.544 264.559C224.507 264.151 222.321 263.669 221.729 263.447C210.585 260.168 192.321 248.67 187.173 238.216C184.016 231.467 183.125 223.526 182.173 216.17L181.47 216.986C176.16 223.815 133.384 235.793 123.21 238.808C122.173 239.105 120.692 239.327 119.877 239.327C118.951 239.29 117.692 238.883 116.544 238.253C115.322 237.549 113.729 236.067 111.914 233.844C105.766 226.493 99.8579 218.621 94.8772 210.428C93.2476 207.686 91.692 204.833 91.5068 204.129C91.2105 203.24 91.1735 189.568 91.3587 159.483C91.4698 135.622 91.5809 115.133 91.5809 113.91C91.5809 112.688 91.3957 99.3495 91.1735 84.2698C90.9513 69.1902 90.655 48.2936 90.2476 18.8753L88.3957 16.504C87.3587 15.2073 85.8772 13.6882 85.0624 13.0954C84.2476 12.5396 82.8402 11.4281 81.9143 10.6871C80.9883 9.94607 78.7291 8.27878 76.9143 6.98201C75.0624 5.72228 72.6921 4.2773 71.618 3.79564C70.5439 3.31398 69.6921 2.68412 69.6921 2.38772C69.6921 2.09131 70.2847 1.5726 70.9884 1.27619C72.0995 0.794535 76.8772 0.720433 106.433 0.720433C132.84 0.720433 140.84 0.831584 141.507 1.20209C142.025 1.4244 142.47 1.7949 142.507 2.01721C142.581 2.20246 141.84 3.01758 140.877 3.79564C139.914 4.53666 138.21 6.01869 135.062 8.87159L100.655 9.05685L104.544 11.3169C119.073 19.9868 133.334 29.3529 134.433 47.436C134.548 49.3301 134.099 52.6993 134.099 52.6993C134.099 52.6993 133.988 56.9634 134.099 108.723C134.173 148.071 134.396 165.115 134.099 168.004C133.877 170.228 133.618 178.082 133.396 198.757L134.951 200.831C135.84 201.98 137.025 203.499 137.655 204.166C138.248 204.87 139.84 206.426 141.173 207.612C142.507 208.834 145.025 210.798 146.803 211.984C148.589 213.015 149.608 213.799 151.062 213.799C154.192 213.799 166.671 213.568 173.396 209.724C177.634 206.998 179.315 205.887 181.47 200.831C181.47 200.831 182.772 95.4906 181.544 40.3647L183.364 35.7207C191.036 23.3416 212.237 0.0164681 228.655 0.0164681Z" fill="white"/>
<path d="M503.346 1.76111C502.049 1.09419 493.577 1.05715 473.91 1.0942C462.466 1.13125 451.281 1.31651 449.021 1.46471H423.037C423.037 1.46471 435.012 10.2213 436.54 10.3939C440.688 10.8756 440.331 10.3648 441.713 11.9605C442.54 12.9149 442.54 17.2705 442.54 17.2705V42.3687C442.54 42.3687 442.169 58.8563 442.169 70.8978V92.5894C428.979 86.3268 412.17 80.0447 395.318 75.7885C395.127 61.7894 397.604 39.3991 389.281 26.2516C388.577 25.1401 387.058 23.2505 385.91 22.0649C384.762 20.8793 382.91 19.2861 381.799 18.5821C380.688 17.8411 378.836 16.6555 377.725 15.8774C376.614 15.0994 374.799 13.9508 373.725 13.3209C372.577 12.617 369.429 11.5055 365.762 10.468C362.466 9.54177 359.021 8.5414 358.096 8.245C357.17 7.91154 353.429 6.76296 349.762 5.65144C346.095 4.53992 342.355 3.5766 342.355 3.5766C343.372 5.07843 344.84 6.29543 345.762 7.80039C346.429 8.87486 347.355 10.6903 347.873 11.8019C348.392 12.9134 349.17 15.3217 349.577 17.1742C349.984 18.9897 350.836 22.5836 351.466 25.1401C352.355 28.9193 352.651 31.1053 352.947 36.8111C353.17 40.6644 353.207 46.8519 353.095 50.5199C352.984 54.1879 352.91 85.1253 352.91 119.249C352.947 153.373 352.984 199.39 353.021 221.509C353.095 253.261 353.614 246.912 353.614 263.191C353.614 280.392 360.871 292.971 374.799 304.021C375.91 304.873 378.058 306.244 379.577 307.059C385.781 310.389 401.545 316.282 409.021 312.543C409.54 312.32 410.812 310.954 410.812 310.954C410.812 310.954 404.469 309.29 401.814 306.369C399.519 303.846 397.614 299.427 397.318 298.204C397.058 297.092 396.91 277.307 396.836 237.07C396.762 192.795 396.614 177.27 396.318 176.307C395.984 175.344 395.873 165.155 395.873 137.293V97.2038C411.599 99.9161 425.862 106.604 440.207 113.227C441.132 113.708 442.318 114.561 442.799 115.19L443.651 115.413L443.577 220.583C445.234 224.222 446.304 227.338 448.91 230.401C450.429 232.143 454.058 236.033 457.021 239.071C460.169 242.331 463.873 245.703 466.058 247.333C468.355 249.001 470.132 250.075 470.688 250.075C471.206 250.075 471.947 250.297 472.355 250.594C473.021 251.113 471.503 251.15 458.54 251.15H444.021C437.836 254.262 435.392 255.373 434.577 255.596C433.762 255.818 432.54 256.485 431.873 257.115C431.244 257.708 430.688 258.412 430.688 258.634C430.688 258.893 430.836 259.338 430.984 259.597C431.207 259.968 438.688 260.042 469.577 259.968C490.651 259.894 508.206 259.708 508.54 259.56C508.91 259.412 509.206 258.967 509.206 258.56C509.206 257.967 508.836 257.745 507.058 257.411C505.91 257.152 504.355 256.744 503.651 256.411C502.947 256.114 500.947 254.929 499.206 253.743C497.466 252.558 494.947 250.409 493.54 248.964C492.169 247.519 490.503 245.444 489.836 244.369C489.169 243.332 488.429 241.998 488.169 241.405C487.873 240.701 487.725 237.33 487.725 230.105C487.725 224.473 487.466 214.321 487.132 207.615C486.688 197.871 486.614 190.46 486.799 170.935C486.91 157.485 487.058 145.222 487.132 143.702C487.206 142.183 486.91 139.627 486.91 139.627C486.91 139.627 487.289 136.634 487.91 135.734C490.756 131.616 495.102 129.876 498.392 126.585C499.058 125.918 499.614 125.103 499.577 124.807C499.577 124.51 498.503 123.176 497.244 121.843C495.984 120.509 493.873 118.026 492.577 116.285C491.281 114.544 489.836 112.283 489.355 111.283C488.873 110.246 488.466 109.171 488.503 108.875C488.503 108.578 488.243 108.06 487.91 107.763C487.392 107.245 487.318 103.577 487.355 70.6014C487.355 46.4813 487.243 34.0323 486.984 34.0323C486.762 34.0323 484.91 32.2909 482.799 30.2161C480.725 28.1042 477.614 25.3254 475.873 24.0657C474.132 22.7689 471.725 21.1386 470.503 20.3976C469.28 19.6937 466.762 18.2487 464.947 17.2113C463.095 16.1738 459.984 14.4695 457.984 13.4691L454.392 11.6166C486.984 11.3202 496.466 11.2091 496.503 11.135C496.577 11.0979 497.132 10.5051 497.725 9.83818C500.225 7.33745 506.448 3.23923 503.346 1.76111Z" fill="white"/>
<path d="M287.91 137.774C287.281 137.367 286.244 137.033 285.577 137.033C284.688 137.033 283.984 137.404 282.799 138.515C270.301 149.931 260.731 159.766 250.244 174.455C249.836 174.973 249.429 176.122 249.318 177.048C249.133 178.345 249.281 179.049 249.91 180.197C250.355 181.013 251.392 182.161 252.244 182.791C261.887 189.807 270.618 197.992 280.133 205.17C282.355 206.837 284.466 208.43 284.762 208.689C285.059 208.912 285.947 209.467 286.688 209.949L288.096 210.764C301.218 199.469 313.095 187.497 325.318 175.27C314.276 162.563 303.935 147.826 289.577 138.849C289.281 138.664 288.503 138.182 287.91 137.774Z" fill="white"/>
<path d="M572.278 245.666C574.922 247.274 576.28 249.481 577.299 253.386C578.318 257.291 576.49 262.345 573.564 265.271C568.189 270.646 563.279 275.186 547.32 275.186C532.718 275.186 515.57 264.08 512.61 262.156C515.909 273.149 534.076 284.032 547.32 285.374C564.204 287.084 583.012 280.182 590.8 264.08C593.661 257.984 592.986 249.582 588.689 242.109C583.198 232.56 572.949 227.583 563.837 228.771C554.576 229.978 549.8 235.866 549.8 245.666C549.705 253.072 556.73 256.929 563.279 256.929C569.449 256.929 574.145 252.113 572.278 245.666Z" fill="white"/>
</svg>
