<?xml version="1.0" encoding="UTF-8" ?>
<svg version="1.1" width="48" height="48" xmlns="http://www.w3.org/2000/svg" shape-rendering="crispEdges">
<rect x="23" y="9" width="2" height="6" fill="#000000" />
<rect x="21" y="11" width="2" height="6" fill="#000000" />
<rect x="25" y="11" width="2" height="6" fill="#000000" />
<rect x="19" y="13" width="2" height="6" fill="#000000" />
<rect x="27" y="13" width="2" height="6" fill="#000000" />
<rect x="17" y="15" width="2" height="6" fill="#000000" />
<rect x="29" y="15" width="2" height="6" fill="#000000" />
<rect x="15" y="17" width="2" height="10" fill="#000000" />
<rect x="31" y="17" width="2" height="10" fill="#000000" />
<rect x="13" y="19" width="2" height="6" fill="#000000" />
<rect x="33" y="19" width="2" height="6" fill="#000000" />
<rect x="11" y="21" width="2" height="2" fill="#000000" />
<rect x="35" y="21" width="2" height="2" fill="#000000" />
<rect x="17" y="23" width="2" height="6" fill="#000000" />
<rect x="29" y="23" width="2" height="6" fill="#000000" />
<rect x="19" y="25" width="2" height="6" fill="#000000" />
<rect x="27" y="25" width="2" height="6" fill="#000000" />
<rect x="21" y="27" width="2" height="6" fill="#000000" />
<rect x="25" y="27" width="2" height="6" fill="#000000" />
<rect x="23" y="29" width="2" height="6" fill="#000000" />
</svg>