<?xml version="1.0" encoding="UTF-8" ?>
<svg version="1.1" width="48" height="48" xmlns="http://www.w3.org/2000/svg" shape-rendering="crispEdges">
<rect x="18" y="3" width="6" height="2" fill="#FFFFFF" />
<rect x="18" y="5" width="4" height="4" fill="#FFFFFF" />
<rect x="20" y="9" width="4" height="2" fill="#FFFFFF" />
<rect x="22" y="11" width="4" height="2" fill="#FFFFFF" />
<rect x="24" y="13" width="4" height="2" fill="#FFFFFF" />
<rect x="26" y="15" width="4" height="2" fill="#FFFFFF" />
<rect x="18" y="17" width="2" height="14" fill="#FFFFFF" />
<rect x="28" y="17" width="4" height="2" fill="#FFFFFF" />
<rect x="16" y="19" width="2" height="10" fill="#FFFFFF" />
<rect x="20" y="19" width="2" height="10" fill="#FFFFFF" />
<rect x="30" y="19" width="4" height="2" fill="#FFFFFF" />
<rect x="14" y="21" width="2" height="6" fill="#FFFFFF" />
<rect x="22" y="21" width="2" height="6" fill="#FFFFFF" />
<rect x="32" y="21" width="6" height="2" fill="#FFFFFF" />
<rect x="12" y="23" width="2" height="2" fill="#FFFFFF" />
<rect x="24" y="23" width="2" height="2" fill="#FFFFFF" />
<rect x="34" y="23" width="8" height="2" fill="#FFFFFF" />
<rect x="32" y="25" width="6" height="2" fill="#FFFFFF" />
<rect x="30" y="27" width="4" height="2" fill="#FFFFFF" />
<rect x="28" y="29" width="4" height="2" fill="#FFFFFF" />
<rect x="26" y="31" width="4" height="2" fill="#FFFFFF" />
<rect x="24" y="33" width="4" height="2" fill="#FFFFFF" />
<rect x="22" y="35" width="4" height="2" fill="#FFFFFF" />
<rect x="20" y="37" width="4" height="2" fill="#FFFFFF" />
<rect x="18" y="39" width="4" height="6" fill="#FFFFFF" />
<rect x="22" y="43" width="2" height="2" fill="#FFFFFF" />
</svg>