<svg width="1746" height="925" viewBox="0 0 1746 925" fill="none" xmlns="http://www.w3.org/2000/svg">
<path fill-rule="evenodd" clip-rule="evenodd" d="M111.857 474.393C151.038 474.079 184.461 489.279 211.983 517.819C218.745 524.802 226.162 533.203 228.343 536.477C230.634 539.75 233.033 543.678 233.797 545.205C234.56 546.733 235.542 550.115 236.196 552.843C236.742 555.571 237.832 559.826 238.596 562.336C239.687 566.045 239.687 567.246 238.705 568.337C237.614 569.428 236.415 568.773 232.706 564.627C230.088 561.79 227.144 559.39 226.162 559.39C225.071 559.39 222.126 556.553 219.618 553.17C201.842 529.46 167.156 515.616 138.034 512.254C132.362 511.708 119.601 510.945 109.676 510.727C81.2904 509.839 35.0866 517.031 34.4176 553.17C34.4176 558.189 34.9629 561.463 36.3808 563.645C37.3625 565.391 39.9801 568.118 42.0525 569.646C44.1248 571.283 47.1787 572.483 48.9238 572.483C51.7597 572.483 51.7597 572.374 50.2327 570.082C49.3601 568.664 48.5966 565.282 48.5966 562.445C48.5966 559.499 49.0329 556.116 49.5783 554.807C50.1236 553.279 52.9594 551.097 56.3406 549.461C60.158 547.606 65.1752 546.296 70.4105 545.751C91.9319 543.658 108.585 562.695 108.585 583.176C108.585 608.356 95.5342 611.962 76.9547 621.255C71.5012 623.874 69.7561 624.201 58.4129 624.201C20.3643 624.201 -1.01431 588.702 0.496932 552.843C1.79432 522.059 23.3851 501.789 48.0513 489.887C68.5422 479.824 89.0889 474.393 111.857 474.393ZM673.784 0.855117C674.329 0.746007 674.656 2.92821 674.656 5.65596C674.656 9.36571 673.893 11.4388 671.82 14.0574C670.184 16.0214 667.567 20.4949 665.822 23.8773C664.076 27.3689 662.659 31.0786 662.659 32.0606C662.659 33.1517 661.677 36.6432 660.477 39.6983C658.296 45.372 658.296 47.4451 658.841 134.079C659.168 182.851 659.386 257.373 659.386 299.708C659.386 342.042 659.386 385.686 659.386 396.816C659.386 407.945 659.496 472.974 659.714 541.386C659.823 627.911 660.368 670.791 661.35 682.138C663.329 709.202 668.384 747.185 688.181 767.572C691.78 771.391 697.67 776.3 701.16 778.483C704.65 780.665 707.486 783.174 707.377 783.829C707.377 784.92 705.305 785.138 699.415 784.811C695.161 784.593 688.617 783.829 685.018 783.174C681.419 782.629 673.566 781.101 667.567 779.901C661.568 778.701 655.133 777.282 653.388 776.628C620.571 766.972 566.784 733.11 551.626 702.324C549.226 697.196 546.172 689.885 544.972 685.957C543.555 681.811 542.682 676.028 542.682 671.991C542.682 668.281 541.7 661.626 540.61 657.261C539.41 653.006 538.101 646.678 536.901 637.403L534.829 639.804C519.193 659.914 393.222 695.189 363.262 704.07C360.208 704.942 355.846 705.597 353.446 705.597C350.719 705.488 347.011 704.288 343.63 702.433C340.031 700.36 335.341 695.995 329.996 689.449C311.89 667.801 294.492 644.62 279.824 620.491C275.025 612.417 270.444 604.016 269.899 601.943C269.026 599.324 268.917 559.062 269.463 470.465C269.79 400.198 270.117 339.86 270.117 336.259C270.117 332.659 269.572 293.379 268.917 248.971C268.263 204.564 267.39 143.026 266.19 56.3922L260.737 49.4091C257.683 45.5903 253.32 41.1167 250.921 39.371C248.521 37.7343 244.377 34.461 241.65 32.2788C238.923 30.0966 232.27 25.1867 226.925 21.3678C221.472 17.6581 214.492 13.4028 211.329 11.9843C208.165 10.5659 205.657 8.71104 205.657 7.83816C205.657 6.96528 207.402 5.43774 209.474 4.56486C212.746 3.14643 226.816 2.92821 313.854 2.92821C391.621 2.92821 415.18 3.25554 417.143 4.34664C418.67 5.0013 419.979 6.0924 420.088 6.74707C420.306 7.29262 418.124 9.69304 415.289 11.9843C412.453 14.1665 407.436 18.531 398.165 26.9324L296.839 27.478L308.291 34.1337C351.079 59.6654 393.074 87.2474 396.311 140.5C396.65 146.078 395.329 156 395.329 156C395.329 156 395.002 168.557 395.329 320.984C395.547 436.859 396.201 487.05 395.329 495.56C394.674 502.107 393.911 525.238 393.257 586.122L397.837 592.232C400.455 595.614 403.945 600.088 405.8 602.052C407.545 604.125 412.235 608.707 416.161 612.199C420.088 615.799 427.504 621.582 432.74 625.074C441.138 630.639 442.665 631.293 445.283 630.42C447.028 629.875 453.463 629.111 459.789 628.784C466.115 628.456 477.567 626.929 485.42 625.401C493.164 623.874 501.563 622.128 503.962 621.364C506.362 620.709 509.525 619.291 511.052 618.418C512.579 617.436 515.96 615.581 518.687 614.272C521.413 612.963 524.795 610.562 526.322 608.926C528.83 606.307 534.829 592.232 534.829 592.232C534.829 592.232 538.663 282.015 535.047 119.676L540.406 106C563 69.545 625.434 0.855117 673.784 0.855117Z" fill="white"/>
<path d="M1482.72 5.99287C1478.9 4.02889 1453.95 3.91981 1396.03 4.02892C1362.33 4.13803 1329.39 4.68358 1322.74 5.12002H1246.22C1246.22 5.12002 1281.48 30.9072 1285.98 31.4156C1298.2 32.834 1297.15 31.3299 1301.22 36.0289C1303.65 38.8396 1303.65 51.6663 1303.65 51.6663V125.578C1303.65 125.578 1302.56 174.132 1302.56 209.592V273.472C1263.72 255.029 1214.22 236.529 1164.59 223.995C1164.02 182.769 1171.32 116.832 1146.81 78.1147C1144.74 74.8414 1140.26 69.2767 1136.88 65.7852C1133.5 62.2937 1128.05 57.602 1124.78 55.5289C1121.5 53.3467 1116.05 49.8552 1112.78 47.5638C1109.51 45.2725 1104.16 41.8901 1101 40.0352C1097.62 37.9622 1088.35 34.6889 1077.55 31.6338C1067.84 28.906 1057.7 25.9601 1054.97 25.0872C1052.24 24.1052 1041.23 20.7228 1030.43 17.4495C1019.63 14.1762 1008.62 11.3393 1008.62 11.3393C1011.61 15.762 1015.94 19.3459 1018.65 23.7778C1020.61 26.942 1023.34 32.2884 1024.87 35.5617C1026.4 38.835 1028.69 45.9272 1029.89 51.3827C1031.08 56.7291 1033.59 67.3128 1035.45 74.8414C1038.07 85.9706 1038.94 92.4081 1039.81 109.211C1040.47 120.558 1040.57 138.78 1040.25 149.582C1039.92 160.384 1039.7 251.491 1039.7 351.981C1039.81 452.471 1039.92 587.986 1040.03 653.125C1040.25 746.632 1041.77 727.932 1041.77 775.874C1041.77 826.529 1063.15 863.571 1104.16 896.113C1107.43 898.622 1113.76 902.659 1118.23 905.06C1136.5 914.867 1182.93 932.221 1204.94 921.208C1206.47 920.554 1210.22 916.529 1210.22 916.529C1210.22 916.529 1191.54 911.629 1183.72 903.029C1176.96 895.599 1171.35 882.583 1170.48 878.983C1169.71 875.709 1169.28 817.445 1169.06 698.951C1168.84 568.565 1168.4 522.847 1167.53 520.01C1166.55 517.174 1166.22 487.168 1166.22 405.118V287.06C1212.53 295.048 1254.54 314.742 1296.78 334.246C1299.51 335.664 1303 338.174 1304.41 340.029L1306.92 340.684L1306.7 650.397C1311.72 661.417 1313.47 665.782 1313.79 667.309C1314.12 668.837 1318.05 674.183 1322.41 679.311C1326.88 684.439 1337.57 695.896 1346.3 704.843C1355.57 714.445 1366.47 724.374 1372.91 729.175C1379.67 734.085 1384.91 737.249 1386.54 737.249C1388.07 737.249 1390.25 737.903 1391.45 738.776C1393.41 740.304 1388.94 740.413 1350.77 740.413H1308.01C1289.8 749.578 1282.6 752.851 1280.2 753.506C1277.8 754.161 1274.2 756.125 1272.24 757.98C1270.38 759.725 1268.75 761.798 1268.75 762.453C1268.75 763.217 1269.18 764.526 1269.62 765.29C1270.27 766.381 1292.31 766.599 1383.27 766.381C1445.33 766.163 1497.03 765.617 1498.01 765.181C1499.1 764.744 1499.98 763.435 1499.98 762.235C1499.98 760.489 1498.88 759.834 1493.65 758.852C1490.27 758.089 1485.69 756.888 1483.61 755.906C1481.54 755.034 1475.65 751.542 1470.53 748.051C1465.4 744.559 1457.98 738.231 1453.84 733.975C1449.8 729.72 1444.9 723.61 1442.93 720.446C1440.97 717.391 1438.79 713.463 1438.02 711.717C1437.15 709.644 1436.71 699.715 1436.71 678.438C1436.71 661.854 1435.95 631.957 1434.97 612.208C1433.66 583.513 1433.44 561.691 1433.99 504.19C1434.32 464.583 1434.75 428.467 1434.97 423.994C1435.19 419.52 1434.32 411.991 1434.32 411.991C1434.32 411.991 1435.43 403.177 1437.26 400.529C1445.64 388.402 1458.44 383.276 1468.13 373.585C1470.09 371.621 1471.73 369.22 1471.62 368.347C1471.62 367.475 1468.45 363.547 1464.75 359.619C1461.04 355.691 1454.82 348.38 1451 343.252C1447.19 338.124 1442.93 331.468 1441.51 328.522C1440.1 325.467 1438.9 322.303 1439.01 321.43C1439.01 320.557 1438.24 319.03 1437.26 318.157C1435.73 316.629 1435.52 305.827 1435.62 208.719C1435.62 137.689 1435.3 101.028 1434.53 101.028C1433.88 101.028 1428.43 95.8996 1422.21 89.7894C1416.1 83.5702 1406.94 75.3869 1401.81 71.6772C1396.69 67.8583 1389.6 63.0575 1386 60.8753C1382.4 58.8022 1374.98 54.5469 1369.64 51.4918C1364.18 48.4367 1355.02 43.4177 1349.13 40.4717L1338.55 35.0162C1434.53 34.1433 1462.46 33.816 1462.56 33.5978C1462.78 33.4886 1464.42 31.7429 1466.16 29.7789C1473.53 22.4146 1491.85 10.3458 1482.72 5.99287Z" fill="white"/>
<path d="M848.284 406.536C846.43 405.336 843.377 404.354 841.413 404.354C838.796 404.354 836.723 405.445 833.233 408.718C796.427 442.336 768.246 471.3 737.361 514.555C736.161 516.083 734.961 519.465 734.634 522.193C734.089 526.012 734.525 528.085 736.379 531.467C737.688 533.867 740.742 537.25 743.25 539.105C771.647 559.765 797.36 583.869 825.38 605.007C831.924 609.917 838.141 614.609 839.013 615.373C839.886 616.027 842.504 617.664 844.685 619.082L848.83 621.483C887.473 588.22 922.45 552.964 958.445 516.955C925.93 479.537 895.476 436.137 853.193 409.7C852.32 409.155 850.03 407.736 848.284 406.536Z" fill="white"/>
<path d="M1685.71 724.264C1693.5 729 1697.5 735.5 1700.5 747C1703.5 758.5 1698.12 773.382 1689.5 782C1673.67 797.827 1659.21 811.199 1612.21 811.199C1569.21 811.199 1518.71 778.492 1510 772.825C1519.71 805.199 1573.21 837.248 1612.21 841.199C1661.94 846.236 1717.32 825.91 1740.26 778.492C1748.68 760.539 1746.7 735.795 1734.04 713.789C1717.87 685.67 1687.69 671.011 1660.86 674.51C1633.58 678.066 1619.52 695.405 1619.52 724.264C1619.24 746.074 1639.93 757.434 1659.21 757.434C1677.38 757.434 1691.21 743.249 1685.71 724.264Z" fill="white"/>
</svg>
