<svg width="4094" height="975" viewBox="0 0 4094 975" fill="none" xmlns="http://www.w3.org/2000/svg">
<path fill-rule="evenodd" clip-rule="evenodd" d="M1090.21 311.855V316.765C1090.21 320.911 1089.67 322.22 1086.61 325.275C1083.45 328.33 1083.78 332.586 1083.78 332.586C1083.78 332.586 1083.67 481.181 1083.67 541.859C1083.67 626.528 1083.45 696.468 1083.12 697.013C1082.79 697.559 1077.34 701.159 1071.02 704.978C1064.69 708.688 1056.95 713.707 1053.89 715.998C1050.29 718.726 1041.02 723.309 1028.59 728.437C1017.79 732.801 1003.28 738.366 996.412 740.657C989.54 742.949 978.742 746.113 972.416 747.64C966.09 749.059 957.801 750.586 953.874 751.023C947.767 751.677 946.458 751.459 944.058 749.604C942.531 748.404 938.605 746.44 935.333 745.131C932.06 743.931 925.189 740.33 920.063 737.275C914.937 734.329 908.065 729.746 904.793 727.237C901.521 724.727 894.759 719.381 889.741 715.344C884.833 711.198 879.489 707.597 877.744 707.16C876.108 706.724 874.035 704.978 872.945 703.014C871.963 701.269 866.837 695.813 851.894 682.392L851.676 780.592C851.561 817.448 851.676 846 851.676 897C851.676 903.282 841.572 913.836 839.5 917C821.5 938.5 756.653 961.06 719.375 961.06C713.059 961.06 695.108 963.881 700.724 951.24C701.378 949.712 703.123 947.857 704.65 947.203C724.914 937.067 735.19 924 735.19 908.141L734.645 671.918C733.99 440.386 734.099 435.585 736.171 431.876C737.371 429.584 738.026 426.966 737.698 425.329C737.371 423.802 737.589 420.856 738.135 418.783C738.68 416.709 739.662 413.763 740.425 412.236C741.08 410.708 743.588 406.562 745.988 402.962C765.611 372.114 793.806 349.962 822.991 328.876C826.917 326.039 831.826 323.529 833.898 323.202C836.079 322.875 838.152 323.093 838.806 323.748C839.351 324.402 840.878 324.948 842.078 324.948C843.278 324.948 845.241 325.93 846.441 327.239C848.513 329.421 848.622 330.84 848.295 356.481C848.186 371.21 848.404 384.74 848.84 386.377C849.713 389.432 849.822 389.432 857.348 379.939C861.602 374.811 868.909 366.737 873.817 362.154C880.252 356.044 884.07 353.316 888.214 352.007C891.378 350.916 895.522 348.625 897.485 346.879C899.34 345.133 905.338 341.533 910.792 338.914C916.245 336.295 927.043 331.604 934.787 328.548C942.64 325.493 953.329 321.675 958.783 320.038C964.236 318.401 971.326 316.219 974.598 315.128C977.87 314.037 981.578 312.946 982.778 312.618C983.978 312.291 1008.63 312.073 1090.21 311.855ZM955.51 363.136C952.566 363.9 944.931 366.737 938.605 369.465C932.279 372.083 925.189 375.357 922.79 376.557C920.39 377.866 911.337 383.54 902.612 389.214C893.886 394.778 883.197 402.416 878.834 406.126C874.363 409.835 869.345 415.4 867.273 418.783C865.201 422.056 860.838 429.912 857.457 436.24L851.349 447.697C851.24 646.277 851.349 651.842 853.203 653.587C854.294 654.569 856.366 655.551 857.893 655.77C859.638 655.988 861.165 657.297 862.256 659.479C863.129 661.334 865.092 664.062 866.619 665.371C868.146 666.681 872.072 669.845 875.344 672.354C878.616 674.864 884.07 678.574 887.342 680.538L893.341 684.247C904.357 679.774 921.044 673.991 937.514 668.535C953.983 663.08 967.617 658.497 967.726 658.497C967.944 658.388 967.29 656.097 966.308 653.369C964.89 649.005 964.781 635.039 965.109 538.804C965.436 472.574 966.09 422.929 966.745 413.327C967.399 404.598 968.49 389.868 969.144 380.594C969.799 371.32 970.453 362.591 970.671 361.281C970.889 359.863 970.671 358.772 970.344 358.772C970.017 358.881 967.726 359.536 965.327 360.299C962.927 361.172 958.564 362.373 955.51 363.136ZM1512.31 311.855V316.001C1512.31 318.183 1511.55 321.238 1510.46 322.766C1509.48 324.293 1508.06 325.821 1507.51 326.257C1506.64 326.694 1506.2 375.357 1505.98 486.103C1505.88 573.61 1505.77 656.861 1505.77 697.013L1501.73 699.523C1472.85 717.408 1445.83 732.008 1413.06 742.403C1400.67 746.332 1387.42 750.46 1374.34 750.804C1366.7 751.055 1357.61 745.747 1350.67 742.185C1320.55 727.119 1299.62 702.463 1273.45 682.829V781.028C1273.45 845.403 1273.12 879.445 1272.36 879.773C1271.81 880.1 1271.27 884.355 1271.27 889.374C1271.27 897.23 1270.94 899.194 1267.89 905.413C1249.93 940.563 1158 958.114 1158 958.114C1158 958.114 1125.86 966 1122.82 958.114C1122.28 956.695 1121.84 955.386 1121.84 955.059C1121.84 954.731 1124.46 953.313 1127.62 951.785C1130.68 950.367 1134.49 947.966 1136.02 946.657C1142.36 940.766 1148.23 936.41 1152.05 928.327C1153.04 926.254 1154.67 920.58 1155.54 915.779C1157.07 907.923 1157.18 883.046 1156.74 671.372C1156.2 463.627 1156.31 435.258 1157.73 432.421C1158.71 430.676 1159.47 426.42 1159.58 423.147C1159.65 419.146 1160.6 415.327 1162.42 411.69C1178.98 379.724 1218.68 336.512 1252.73 323.966C1255.78 322.766 1257.2 322.656 1259.81 323.638C1261.67 324.402 1263.85 324.948 1264.72 324.948C1265.6 324.839 1267.34 325.93 1268.54 327.239C1270.61 329.421 1270.72 330.84 1270.39 357.026C1270.18 372.083 1270.5 385.613 1271.05 387.141C1271.92 389.868 1272.03 389.759 1275.63 384.413C1277.7 381.467 1284.79 373.393 1291.44 366.737C1301.81 356.153 1304.32 354.08 1309.99 352.007C1313.59 350.698 1318.28 348.079 1320.35 346.115C1322.42 344.26 1329.62 340.223 1336.16 337.277C1342.71 334.222 1353.29 329.749 1359.61 327.348C1365.94 324.948 1375.43 321.565 1380.88 319.929C1386.34 318.401 1393.43 316.11 1396.7 315.019C1399.97 314.037 1403.68 312.837 1404.88 312.618C1406.08 312.291 1430.73 312.073 1512.31 311.855ZM1378.16 363.136C1374.23 364.118 1367.14 366.628 1362.34 368.592C1357.54 370.447 1350.89 373.502 1347.62 375.138C1344.34 376.775 1338.89 379.83 1335.62 381.903C1332.35 383.867 1324.71 388.777 1318.71 392.814C1312.71 396.742 1303.99 403.289 1299.41 407.217C1294.72 411.145 1290.57 415.291 1290.14 416.382C1289.7 417.364 1287.63 421.401 1285.45 425.329C1283.26 429.257 1279.67 435.695 1277.48 439.841L1273.45 447.151C1273.34 646.168 1273.45 651.842 1275.3 653.587C1283.74 661.184 1293.36 670.321 1303.44 677.046C1307.04 679.447 1311.08 681.956 1312.5 682.611C1314.46 683.702 1316.09 683.484 1321.22 681.629C1324.6 680.428 1337.25 676.064 1349.25 671.918C1361.25 667.881 1375.32 663.189 1380.66 661.662L1390.15 658.825C1387.1 649.223 1386.88 635.039 1386.88 550.806C1386.99 497.124 1387.43 444.096 1387.97 432.967C1388.52 421.838 1389.5 404.707 1390.04 394.778C1390.7 384.849 1391.46 372.738 1391.79 367.828C1392.23 362.809 1392.01 358.772 1391.57 358.881C1391.13 358.881 1389.5 359.427 1387.97 360.081C1386.44 360.627 1382.08 362.045 1378.16 363.136ZM111.857 520.364C151.038 520.051 184.461 535.25 211.983 563.79C218.745 570.773 226.162 579.174 228.343 582.448C230.634 585.721 233.033 589.649 233.797 591.176C234.56 592.704 235.542 596.086 236.196 598.814C236.742 601.542 237.832 605.797 238.596 608.307C239.687 612.016 239.687 613.217 238.705 614.308C237.614 615.399 236.415 614.744 232.706 610.598C230.088 607.761 227.144 605.361 226.162 605.361C225.071 605.361 222.126 602.524 219.618 599.142C201.842 575.431 167.156 561.587 138.034 558.225C132.362 557.68 119.601 556.916 109.676 556.698C81.2904 555.81 35.0866 563.002 34.4176 599.142C34.4176 604.161 34.9629 607.434 36.3808 609.616C37.3625 611.362 39.9801 614.09 42.0525 615.617C44.1248 617.254 47.1787 618.454 48.9238 618.454C51.7597 618.454 51.7597 618.345 50.2327 616.054C49.3601 614.635 48.5966 611.253 48.5966 608.416C48.5966 605.47 49.0329 602.087 49.5783 600.778C50.1236 599.251 52.9594 597.068 56.3406 595.432C60.158 593.577 65.1752 592.268 70.4105 591.722C91.9319 589.629 108.585 608.667 108.585 629.147C108.585 654.327 95.5342 657.933 76.9547 667.226C71.5012 669.845 69.7561 670.172 58.4129 670.172C20.3643 670.172 -1.01431 634.673 0.496932 598.814C1.79432 568.03 23.3851 547.76 48.0513 535.858C68.5422 525.795 89.0889 520.364 111.857 520.364ZM4083.74 661.552C4089 679.967 4098.38 708.302 4089.95 726.255C4067.02 773.673 3989.13 795.508 3939.41 790.471C3895.75 786.176 3842.91 779.883 3801.14 758.988C3798.74 757.788 3795.9 755.933 3794.81 754.951C3793.07 753.314 3792.85 750.368 3792.96 718.071C3792.96 695.704 3793.39 682.611 3794.05 682.283C3794.7 681.956 3800.26 686.975 3806.59 693.522C3812.92 699.959 3820.11 706.724 3822.51 708.47C3851.67 729.917 3887.04 752.628 3936.41 754.951C3980.31 757.016 4016.25 757.869 4045.23 728.873C4048.72 725.491 4053.09 720.363 4054.83 717.526C4056.58 714.58 4058.32 710.979 4058.87 709.452C4059.3 707.815 4060.29 706.288 4060.94 705.851C4062.03 705.306 4061.81 703.342 4060.07 697.013C4058.87 692.54 4056.03 685.448 4053.85 681.192C4050.03 673.773 4049.82 673.664 4049.27 676.828C4044.45 696.124 4025.45 701.378 4007.28 701.378C3987.99 701.378 3968.93 693.837 3969.21 672.027C3969.21 643.168 3983.28 625.829 4010.55 622.273C4037.38 618.774 4075.17 632.618 4083.74 661.552ZM3067.32 1.00002C3125.23 0.890911 3150.18 0.99999 3154 2.96397C3163.14 7.31688 3144.81 19.3857 3137.45 26.75C3135.7 28.714 3134.07 30.4597 3133.85 30.5689C3133.74 30.7871 3105.82 31.1144 3009.84 31.9873L3020.42 37.4428C3026.31 40.3888 3035.47 45.4078 3040.92 48.4629C3046.27 51.518 3053.68 55.7733 3057.28 57.8464C3060.88 60.0286 3067.97 64.8294 3073.1 68.6483C3078.22 72.358 3087.39 80.5413 3093.49 86.7605C3099.71 92.8707 3105.16 97.9989 3105.82 97.9989C3106.58 97.9989 3106.91 134.66 3106.91 205.691C3106.8 302.798 3107.02 313.6 3108.54 315.128C3109.53 316.001 3110.29 317.528 3110.29 318.401C3110.18 319.274 3111.38 322.438 3112.8 325.493C3114.22 328.439 3118.47 335.095 3122.29 340.223C3126.1 345.351 3132.32 352.662 3136.03 356.59C3139.74 360.518 3142.9 364.446 3142.9 365.319C3143.01 366.191 3141.37 368.592 3139.41 370.556C3129.72 380.247 3116.93 385.373 3108.54 397.5C3106.71 400.148 3105.6 408.963 3105.6 408.963C3105.6 408.963 3106.47 416.491 3106.25 420.965C3106.04 425.438 3105.6 461.554 3105.27 501.161C3104.73 558.662 3104.95 580.484 3106.25 609.18C3107.24 628.928 3108 658.825 3108 675.409C3108 696.686 3108.44 706.615 3109.31 708.688C3110.07 710.434 3112.25 714.362 3114.22 717.417C3116.18 720.581 3121.09 726.691 3125.12 730.946C3129.27 735.202 3136.68 741.53 3141.81 745.022C3146.94 748.513 3152.83 752.005 3154.9 752.878C3156.97 753.86 3161.55 755.06 3164.93 755.824C3170.17 756.806 3171.26 757.46 3171.26 759.206C3171.26 760.406 3170.39 761.715 3169.3 762.152C3168.31 762.588 3116.62 763.134 3054.55 763.352C2963.59 763.57 2941.56 763.352 2940.9 762.261C2940.47 761.497 2940.03 760.188 2940.03 759.424C2940.03 758.77 2941.67 756.696 2943.52 754.951C2945.49 753.096 2949.08 751.132 2951.48 750.477C2953.88 749.823 2961.08 746.549 2979.3 737.384H3022.05C3060.23 737.384 3064.7 737.275 3062.74 735.747C3061.54 734.874 3059.35 734.22 3057.83 734.22C3056.19 734.22 3050.96 731.056 3044.19 726.146C3037.76 721.345 3026.85 711.416 3017.58 701.814C3008.85 692.867 2998.17 681.41 2993.69 676.282C2989.33 671.154 2985.4 665.808 2985.08 664.28C2984.75 662.753 2983.01 658.388 2977.99 647.368L2978.21 337.655L2975.7 337C2974.28 335.145 2970.79 332.636 2968.06 331.217C2925.82 311.714 2883.82 292.019 2837.51 284.032V402.089C2837.51 484.139 2837.83 514.145 2838.82 516.982C2839.69 519.818 2840.12 565.536 2840.34 695.922C2840.56 814.416 2841 872.68 2841.76 875.954C2842.63 879.554 2848.24 892.57 2855 900C2862.82 908.6 2881.5 913.5 2881.5 913.5C2881.5 913.5 2877.75 917.525 2876.23 918.179C2854.21 929.192 2807.79 911.839 2789.52 902.031C2785.04 899.631 2778.72 895.594 2775.45 893.084C2734.43 860.542 2713.06 823.5 2713.06 772.845C2713.06 724.904 2711.53 743.603 2711.31 650.096C2711.2 584.957 2711.09 449.442 2710.99 348.952C2710.99 248.462 2711.2 157.355 2711.53 146.553C2711.86 135.751 2711.75 117.53 2711.09 106.182C2710.22 89.3792 2709.35 82.9417 2706.73 71.8125C2704.88 64.2839 2702.37 53.7002 2701.17 48.3538C2699.97 42.8983 2697.68 35.8061 2696.15 32.5328C2694.63 29.2595 2691.9 23.9131 2689.94 20.7489C2687.22 16.317 2682.9 12.7331 2679.9 8.3104C2679.9 8.3104 2690.92 11.1473 2701.71 14.4206C2712.51 17.6939 2723.53 21.0763 2726.26 22.0583C2728.98 22.9311 2739.13 25.8771 2748.83 28.6049C2759.63 31.66 2768.9 34.9333 2772.28 37.0063C2775.45 38.8612 2780.79 42.2436 2784.06 44.5349C2787.33 46.8263 2792.79 50.3178 2796.06 52.5C2799.33 54.5731 2804.79 59.2648 2808.17 62.7563C2811.55 66.2478 2816.02 71.8125 2818.09 75.0858C2842.6 113.803 2835.31 179.74 2835.87 220.966C2885.5 233.5 2935 252 2973.84 270.443V206.563C2973.84 171.103 2974.93 122.549 2974.93 122.549V48.6374C2974.93 48.6374 2974.93 35.8107 2972.5 33C2968.43 28.301 2969.48 29.8051 2957.26 28.3867C2952.76 27.8783 2917.5 2.09112 2917.5 2.09112C2942.5 2.09112 2969.5 2.09112 2994.02 2.09112C3000.67 1.65468 3033.61 1.10913 3067.32 1.00002ZM3366.49 8.3104C3368.02 8.63773 3376.31 11.0381 3385.04 13.6568C3393.76 16.3845 3404.01 19.5487 3407.94 20.7489C3411.87 21.9492 3423.54 25.3316 3433.79 28.2775C3445.24 31.5508 3454.95 34.9333 3458.33 37.0063C3461.49 38.8612 3466.84 42.2436 3470.11 44.5349C3473.38 46.8263 3478.84 50.3178 3482.11 52.5C3485.38 54.5731 3490.83 59.2648 3494.21 62.7563C3497.6 66.2478 3502.07 71.8125 3504.14 75.0858C3506.21 78.3591 3509.16 84.251 3510.68 88.179C3512.21 92.1069 3514.07 97.4533 3514.83 100.181C3515.59 102.909 3516.57 109.455 3517.01 114.911C3517.56 120.257 3519.52 132.369 3519.52 132.369C3519.52 132.369 3527.04 459.164 3527.26 596.305C3527.59 710.216 3528.24 819.326 3528.9 838.856C3529.44 858.387 3530.43 880.646 3530.97 888.501C3531.52 896.685 3532.83 904.977 3533.92 908.141C3535.01 911.087 3536.86 915.342 3538.06 917.416C3539.15 919.489 3541.88 923.635 3544.06 926.69C3546.13 929.636 3550.17 934.437 3552.89 937.274C3556.28 940.874 3557.58 942.838 3556.82 943.602C3556.06 944.366 3554.75 944.475 3553 943.711C3551.48 943.166 3547.11 941.856 3543.19 940.765C3539.26 939.783 3533.81 937.492 3530.86 935.746C3527.26 933.564 3525.19 933.018 3523.77 933.673C3522.68 934.218 3519.74 934 3516.46 933.127C3513.41 932.364 3504.36 929.854 3496.29 927.454C3488.22 925.053 3479.6 922.326 3477.2 921.453C3474.8 920.58 3468.37 917.961 3463.02 915.779C3457.68 913.597 3450.04 910.433 3446.11 908.905C3440.88 906.723 3437.28 904.213 3432.48 899.303C3428.88 895.594 3424.52 890.465 3422.67 887.847C3420.92 885.228 3419.07 882.828 3418.74 882.5C3418.41 882.173 3416.12 878.463 3413.61 874.317C3409.9 867.88 3408.7 864.388 3406.41 852.495C3404.89 844.639 3403.14 835.583 3402.49 832.31C3401.94 829.036 3400.96 822.817 3400.2 818.671C3399.54 814.416 3398.67 809.069 3398.23 806.669C3397.8 804.268 3397.91 797.395 3398.56 791.393C3399.32 783.647 3399.22 777.427 3398.34 770.117C3397.36 762.479 3397.03 672.573 3397.03 427.511C3397.03 212.674 3396.6 92.5434 3395.83 87.6334C3395.29 83.3781 3393.87 76.5042 3392.67 72.358C3391.47 68.1027 3389.62 59.8104 3388.42 53.8093C3387.33 47.8082 3385.25 40.1705 3383.95 36.8972C3382.75 33.6239 3379.58 27.2956 3377.07 22.9311C3374.13 17.803 3371.84 15.0752 3370.53 15.0752C3369.55 15.0752 3366.49 14.5297 3363.77 13.9841C3359.95 13.1112 3358.86 12.4566 3358.86 10.7108C3358.86 9.29239 3359.73 8.41951 3361.26 8.20129C3362.68 7.98307 3364.97 7.98307 3366.49 8.3104ZM3583.87 9.29239C3586.92 10.1653 3595.21 12.6748 3602.08 14.7479C3608.96 16.821 3617.79 19.5487 3621.72 20.7489C3625.64 21.9492 3636.88 25.2225 3646.8 28.0593C3660.11 31.7691 3666.98 34.3877 3672.98 37.8792C3677.45 40.607 3681.38 43.1165 3681.71 43.4438C3682.03 43.8803 3686.18 46.608 3690.98 49.554C3695.78 52.5 3702.86 58.0646 3706.79 61.9926C3710.72 65.9205 3715.95 72.5762 3718.46 76.7224C3720.97 80.9777 3724.57 88.9427 3726.42 94.3982C3728.61 101.381 3729.7 106.728 3729.7 111.31C3729.7 115.129 3731.88 126.913 3731.88 126.913C3731.88 126.913 3739.69 510.798 3739.51 659.916C3739.4 806.123 3739.51 826.309 3741.04 835.038C3742.02 840.384 3742.78 848.785 3742.78 853.586C3742.78 858.496 3743.77 866.134 3744.97 871.044C3746.17 875.845 3748.46 883.701 3750.2 888.501C3751.95 893.302 3754.45 899.412 3755.87 902.14C3757.29 904.868 3760.67 910.542 3763.51 914.688C3766.34 918.834 3771.8 925.49 3775.61 929.309C3779.43 933.127 3783.9 937.055 3785.65 938.037C3787.28 939.019 3788.59 940.438 3788.59 941.092C3788.59 941.856 3787.28 943.166 3785.76 943.82C3783.47 945.02 3781.29 944.911 3775.07 943.82C3770.82 943.166 3761.44 940.547 3754.24 938.037C3745.62 935.201 3738.75 933.564 3734.06 933.346C3728.06 933.018 3724.24 931.709 3708.97 924.944C3699.05 920.58 3689.56 916.215 3687.7 915.124C3685.85 914.142 3681.71 912.397 3678.43 911.305C3675.16 910.214 3667.31 906.723 3660.98 903.449C3654.66 900.285 3646.37 895.266 3642.44 892.32C3638.51 889.374 3632.62 884.137 3629.24 880.645C3625.86 877.154 3620.84 870.826 3618.01 866.679C3615.17 862.533 3612.56 857.296 3612.23 855.223C3611.9 853.15 3611.79 844.53 3612.12 836.129C3612.66 824.236 3612.45 819.653 3611.14 815.398C3609.72 810.706 3609.5 803.286 3610.05 763.57C3610.48 738.039 3610.7 579.502 3610.7 411.145C3610.81 226.421 3610.37 100.508 3609.72 93.6345C3609.17 87.3061 3607.97 79.4502 3606.99 76.1769C3606.12 72.9036 3604.38 65.2659 3603.18 59.2648C3601.98 53.2638 3600.12 45.626 3599.25 42.3527C3598.27 39.0794 3595.76 32.8602 3593.69 28.714C3591.5 24.4587 3589 19.8761 3587.91 18.3485C3586.71 16.6028 3584.52 15.2934 3581.47 14.7479C3577.87 14.0932 3577 13.5477 3576.78 11.4746C3576.67 10.0562 3577 8.63773 3577.43 8.20129C3577.76 7.87396 3580.71 8.3104 3583.87 9.29239ZM3615.17 13.4386C3606.33 11.2278 3623.61 15.7413 3615.17 13.4386V13.4386ZM673.784 46.8263C674.329 46.7171 674.656 48.8993 674.656 51.6271C674.656 55.3368 673.893 57.4099 671.82 60.0286C670.184 61.9926 667.567 66.4661 665.822 69.8485C664.076 73.34 662.659 77.0498 662.659 78.0317C662.659 79.1228 661.677 82.6144 660.477 85.6694C658.296 91.3432 658.296 93.4163 658.841 180.05C659.168 228.822 659.386 303.344 659.386 345.679C659.386 388.013 659.386 431.657 659.386 442.787C659.386 453.916 659.496 518.946 659.714 587.358C659.823 673.882 660.368 716.762 661.35 728.11C663.329 755.173 668.384 793.156 688.181 813.543C691.78 817.362 697.67 822.272 701.16 824.454C704.65 826.636 707.486 829.146 707.377 829.8C707.377 830.891 705.305 831.11 699.415 830.782C695.161 830.564 688.617 829.8 685.018 829.146C681.419 828.6 673.566 827.072 667.567 825.872C661.568 824.672 655.133 823.254 653.388 822.599C620.571 812.944 566.784 779.081 551.626 748.295C549.226 743.167 546.172 735.856 544.972 731.928C543.555 727.782 542.682 721.999 542.682 717.962C542.682 714.253 541.7 707.597 540.61 703.233C539.41 698.977 538.101 692.649 536.901 683.374L534.829 685.775C519.193 705.886 393.222 741.16 363.262 750.041C360.208 750.914 355.846 751.568 353.446 751.568C350.719 751.459 347.011 750.259 343.63 748.404C340.031 746.331 335.341 741.967 329.996 735.42C311.89 713.772 294.492 690.592 279.824 666.462C275.025 658.388 270.444 649.987 269.899 647.914C269.026 645.295 268.917 605.033 269.463 516.436C269.79 446.169 270.117 385.831 270.117 382.231C270.117 378.63 269.572 339.35 268.917 294.943C268.263 250.535 267.39 188.997 266.19 102.363L260.737 95.3802C257.683 91.5614 253.32 87.0879 250.921 85.3421C248.521 83.7055 244.377 80.4322 241.65 78.25C238.923 76.0678 232.27 71.1578 226.925 67.339C221.472 63.6292 214.492 59.3739 211.329 57.9555C208.165 56.5371 205.657 54.6822 205.657 53.8093C205.657 52.9364 207.402 51.4089 209.474 50.536C212.746 49.1176 226.816 48.8993 313.854 48.8993C391.621 48.8993 415.18 49.2267 417.143 50.3178C418.67 50.9724 419.979 52.0635 420.088 52.7182C420.306 53.2638 418.124 55.6642 415.289 57.9555C412.453 60.1377 407.436 64.5021 398.165 72.9036L296.839 73.4491L308.291 80.1048C351.079 105.637 393.074 133.219 396.311 186.471C396.65 192.049 395.329 201.971 395.329 201.971C395.329 201.971 395.002 214.528 395.329 366.955C395.547 482.83 396.201 533.021 395.329 541.531C394.674 548.078 393.911 571.209 393.257 632.093L397.837 638.203C400.455 641.585 403.945 646.059 405.8 648.023C407.545 650.096 412.235 654.678 416.161 658.17C420.088 661.771 427.504 667.554 432.74 671.045C441.138 676.61 442.665 677.264 445.283 676.391C447.028 675.846 453.463 675.082 459.789 674.755C466.115 674.427 477.567 672.9 485.42 671.372C493.164 669.845 501.563 668.099 503.962 667.335C506.362 666.681 509.525 665.262 511.052 664.389C512.579 663.407 515.96 661.552 518.687 660.243C521.413 658.934 524.795 656.533 526.322 654.897C528.83 652.278 534.829 638.203 534.829 638.203C534.829 638.203 538.663 327.987 535.047 165.647L540.406 151.971C563 115.516 625.434 46.8263 673.784 46.8263ZM3188.27 154.736C3189.36 154.736 3193.73 156.045 3197.98 157.573C3202.13 159.21 3206.82 160.955 3208.34 161.719C3209.87 162.374 3214.01 164.556 3217.61 166.629C3221.21 168.593 3231.25 173.939 3239.97 178.522C3248.7 182.996 3259.5 188.888 3263.97 191.615C3268.44 194.343 3278.69 200.671 3286.76 205.909C3295.27 211.364 3301.93 216.383 3302.69 218.02C3303.45 219.548 3304.11 226.094 3304.22 233.295C3304.32 240.169 3304.65 246.825 3304.87 248.025C3305.2 249.225 3305.85 262.973 3306.51 278.576C3307.27 297.779 3307.27 307.272 3306.51 308.036C3305.78 308.763 3304.25 307.818 3301.93 305.199C3299.96 303.017 3296.36 300.289 3293.96 299.089C3291.56 297.779 3283.71 293.306 3276.51 289.051C3269.31 284.795 3263.31 281.304 3263.1 281.304C3262.99 281.304 3259.28 279.231 3254.92 276.612C3250.66 273.993 3244.34 270.393 3241.06 268.538C3237.79 266.683 3229.39 261.991 3222.52 258.172C3215.65 254.244 3208.23 250.098 3206.16 248.898C3204.09 247.698 3199.07 244.97 3187.62 238.751V213.328C3187.62 199.471 3187.29 180.486 3186.86 171.321C3186.2 155.5 3186.31 154.736 3188.27 154.736ZM2633 185.396C2635.95 186.051 2640.85 187.469 2643.91 188.56C2646.85 189.651 2651.76 190.852 2654.81 191.179C2657.76 191.506 2662.45 192.161 2665.18 192.597C2668.01 193.143 2672.05 194.998 2674.67 197.071C2677.28 198.926 2679.79 200.562 2680.45 200.562C2681.1 200.562 2681.43 209.182 2681.21 224.785C2680.99 248.353 2680.88 249.116 2678.81 248.789C2677.61 248.68 2674.12 248.025 2671.18 247.48C2668.12 246.825 2660.27 245.079 2653.72 243.552C2647.07 242.133 2638.02 240.169 2633.55 239.296C2524.73 218.055 2400.96 231.702 2296.5 273.5C2292.25 275.355 2288.65 276.337 2288.65 275.791C2288.65 275.064 2287.92 275.064 2286.47 275.791C2285.27 276.337 2284.28 276.555 2284.28 276.01C2284.28 275.573 2286.9 273.391 2290.06 271.1C2383.74 200.815 2519.58 161.082 2633 185.396ZM3197.98 303.017L3200.82 305.308C3200.82 305.308 3248.01 342.409 3274.33 359.645C3282.18 364.664 3288.4 369.901 3296.69 378.412C3303.67 385.504 3309.34 392.487 3311.09 395.978C3313.7 401.107 3314.25 403.944 3315.23 417.91C3315.78 426.857 3316.32 464.827 3316.32 502.47C3316.32 540.222 3316.87 579.611 3317.52 590.085C3318.18 600.56 3318.94 631.329 3320.14 707.379L3324.61 715.016C3327.12 719.272 3333.56 727.128 3339.12 732.692C3344.57 738.257 3349.48 742.839 3350.13 742.839C3350.68 742.839 3353.3 744.476 3355.91 746.331C3358.42 748.295 3363 751.023 3365.95 752.332C3369 753.641 3374.35 755.387 3377.84 756.151C3381.44 756.915 3384.49 758.224 3384.71 758.879C3384.93 759.642 3384.16 760.733 3383.07 761.279C3382.09 761.825 3372.82 762.588 3362.68 763.025C3344.14 763.679 3344.13 763.679 3333.77 760.406C3328.1 758.551 3316.98 755.06 3309.23 752.659C3301.38 750.15 3291.89 746.44 3287.96 744.367C3284.04 742.185 3279.02 739.021 3276.73 737.275C3274.55 735.529 3272.04 734.111 3271.28 734.111C3270.62 734.002 3267.02 731.819 3263.42 728.982C3259.82 726.255 3254.7 723.091 3251.97 721.89C3248.59 720.363 3242.37 715.016 3231.79 704.214C3223.39 695.813 3212.49 684.138 3207.47 678.465C3201.04 671.045 3197.98 666.572 3196.78 662.644C3195.8 659.589 3194.16 655.224 3193.18 652.824C3191.98 650.205 3190.89 644.204 3190.46 638.094C3190.13 632.42 3189.8 578.083 3189.8 407.326L3188.39 304.217L3192.09 302.689C3195.26 301.489 3196.02 301.489 3197.98 303.017ZM2042.61 309.782C2104.34 309.672 2114.81 309.891 2117.65 311.309C2119.39 312.182 2120.92 313.709 2120.92 314.582C2120.92 315.455 2117.32 318.838 2112.96 322.002C2096.3 334.822 2099.11 344.425 2099.11 365.864C2099.11 376.993 2099.32 386.813 2099.65 387.686C2099.98 388.777 2102.16 386.813 2106.52 381.358C2110.01 377.102 2117.21 369.247 2122.66 363.9C2136.92 349.935 2158.95 339.622 2177.09 331.713C2181.23 329.858 2190.4 326.366 2197.27 323.857C2204.14 321.347 2213.41 318.947 2217.66 318.292C2222.35 317.747 2227.26 316.328 2229.66 314.801C2285.9 307.971 2327.6 309.782 2334.26 322.002C2334.91 323.202 2335.24 343.715 2335.57 356.59C2336 376.884 2335.9 380.485 2334.26 383.54C2333.28 385.613 2332.95 387.25 2333.6 387.359C2334.26 387.577 2334.7 431.439 2334.7 513.163C2334.7 582.12 2334.7 666.244 2334.7 761.388H2284.52C2252.13 761.388 2234.13 760.952 2233.81 760.297C2233.48 759.642 2231.95 759.861 2229.66 760.952C2227.48 762.043 2224.97 762.479 2222.9 762.043C2221.05 761.606 2218.75 760.406 2217.66 759.424C2215.92 757.678 2215.81 749.168 2215.81 597.723C2215.81 501.815 2216.25 431.767 2216.9 422.601C2217.45 414.2 2218.54 399.47 2219.08 389.868C2219.74 380.267 2220.61 369.247 2221.81 358.117L2216.36 359.972C2213.3 360.954 2206.76 363.136 2201.63 364.773C2196.5 366.41 2186.47 370.556 2179.27 374.047C2172.07 377.539 2161.06 383.758 2154.73 387.904C2148.41 391.941 2139.57 398.161 2135.1 401.543C2130.63 404.926 2125.17 409.617 2122.88 411.909C2120.7 414.2 2115.03 423.365 2101.5 448.788L2100.85 598.269C2100.31 729.855 2100.41 747.968 2101.83 749.932C2102.81 751.132 2103.47 753.314 2103.47 754.842C2103.47 756.369 2102.6 758.442 2101.5 759.533C2099.76 761.388 2095.83 761.497 1982.4 761.388L1981.75 757.788C1981.42 755.933 1981.42 734.656 1981.75 710.652C1981.96 686.648 1982.73 657.188 1983.27 645.186C1983.93 633.184 1984.47 582.993 1984.47 533.566C1984.58 444.86 1984.47 443.332 1984.47 443.332C1984.47 443.332 1989.63 436.29 1992.54 433.512C1994.51 431.658 1998.32 427.293 2001.16 423.692C2003.89 420.092 2012.5 410.708 2020.25 402.962C2027.99 395.106 2039.44 383.867 2045.66 377.866C2051.99 371.756 2061.26 363.245 2066.38 358.881C2071.51 354.517 2078.05 349.607 2080.89 348.079C2085.25 345.57 2086.13 344.588 2086.02 341.86C2086.02 332.626 2077.8 334.768 2071.29 334.768C2069.44 334.768 2050.13 334.44 1988.4 333.458L1981.86 328.548C1978.26 325.821 1972.8 322.111 1969.64 320.147C1966.48 318.292 1963.86 316.219 1963.86 315.673C1963.86 315.019 1964.62 313.819 1965.71 312.837C1966.8 311.855 1968.44 310.763 1969.31 310.436C1970.19 310.109 2003.23 309.782 2042.61 309.782ZM1795.35 311.309C1800.15 311.636 1827.74 311.855 1909.32 311.855L1909.98 316.983C1921.2 418.003 1911.72 526.95 1911.72 626.971C1917.53 667.66 1790.36 731.905 1761.53 756.369C1757.94 759.424 1752.7 763.57 1744.63 769.026H1725.21C1663.86 769.026 1636.06 753.941 1581.57 722.981L1582.01 673.664C1582.22 642.458 1582.01 620.091 1581.24 612.453C1580.48 605.361 1579.93 569.245 1579.72 523.31C1579.39 447.042 1579.39 446.169 1581.57 443.66C1582.88 442.241 1584.52 439.732 1585.39 437.986C1586.26 436.24 1593.02 428.821 1600.44 421.619C1623.45 398.603 1647.77 375.854 1675.59 358.554C1679.73 356.044 1688.13 351.134 1694.46 347.534C1717.29 334.929 1743.44 319.606 1769.17 314.146C1772.77 313.491 1778.11 312.509 1781.17 311.855C1784.11 311.309 1790.55 311.091 1795.35 311.309ZM1697.29 402.525C1694.35 405.144 1690.75 409.508 1689.11 412.236L1686.28 417.146C1685.19 477.156 1684.75 530.184 1684.75 573.719L1684.64 652.824C1706.63 689.27 1748.79 689.527 1786.62 690.903L1792.62 685.011C1792.62 421.183 1792.51 344.588 1792.29 344.588C1792.18 344.588 1789.57 345.788 1786.62 347.206C1755.32 361.743 1723.65 380.065 1697.29 402.525ZM2512.7 401.325C2514.66 401.325 2517.71 402.307 2519.57 403.507C2521.31 404.707 2523.6 406.126 2524.48 406.671C2566.76 433.108 2597.21 476.508 2629.73 513.926C2593.73 549.935 2558.76 585.191 2520.11 618.454L2515.97 616.054C2513.79 614.635 2511.17 612.998 2510.3 612.344C2509.43 611.58 2503.21 606.888 2496.66 601.978C2468.64 580.841 2442.93 556.736 2414.53 536.076C2412.03 534.221 2408.97 530.839 2407.66 528.438C2405.81 525.056 2405.37 522.983 2405.92 519.164C2406.25 516.436 2407.45 513.054 2408.64 511.526C2439.53 468.271 2467.71 439.307 2504.52 405.689C2508.01 402.416 2510.08 401.325 2512.7 401.325ZM1618.33 822.515C1618.98 822.951 1616.91 825.57 1613.53 828.625C1610.26 831.68 1602.08 839.318 1595.42 845.646C1550.37 888.5 1505.4 911.809 1440.5 937C1371.58 963.75 1329.07 978.065 1255.5 974C1243.36 973.329 1222.64 971.437 1224.5 971C1241.5 967 1291.39 941.236 1295.08 933.848C1295.08 933.738 1381.71 919.804 1440.5 900.5C1493.55 883.084 1503.41 880.597 1581.57 841.5C1585.39 839.645 1589.31 838.118 1590.3 838.118C1591.39 838.118 1594.66 836.59 1597.6 834.626C1600.44 832.662 1606.11 828.952 1610.04 826.443C1613.85 823.933 1617.67 822.188 1618.33 822.515ZM878.834 880.848C943.701 913.5 1021.78 913.967 1084.76 919.445C1092.28 920.209 1101.77 920.536 1113.66 919.991L1113.88 923.482C1114.1 926.21 1113.01 928.719 1109.41 933.848C1102.13 944.035 1076.27 956.441 1065.09 962.464C1063.78 963.119 1060.62 963.664 1058 963.664C998.811 963.664 965.109 960.798 912.701 951C895.909 947.861 878.834 933.848 878.834 933.848C878.834 933.848 876.928 882.031 878.834 880.848Z" fill="white"/>
</svg>
